<?xml version="1.0" encoding="UTF-8"?>
<svg width="100px" height="100px" viewBox="0 0 100 100" version="1.1" xmlns="http://www.w3.org/2000/svg" xmlns:xlink="http://www.w3.org/1999/xlink">
    <title>ic/功能支持/敬请期待备份 2</title>
    <defs>
        <linearGradient x1="52.2197018%" y1="55.3536424%" x2="51.8361209%" y2="45.2012725%" id="linearGradient-1">
            <stop stop-color="#40B6F9" offset="0%"></stop>
            <stop stop-color="#5578F5" offset="100%"></stop>
        </linearGradient>
    </defs>
    <g id="ic/功能支持/敬请期待备份-2" stroke="none" stroke-width="1" fill="none" fill-rule="evenodd">
        <path d="M3.54185981,62.4780511 C-2.8442008,50.7076237 -0.545108768,22.7333223 11.1392853,19.8709074 C22.8236793,17.0084925 25.8932934,3.7891714 42.5209305,3.7891714 C59.1485677,3.7891714 64.5746834,19.4498036 80.9868972,19.8709074 C97.3991109,20.2920111 100.458635,24.0430807 100,39.9637032 C99.5413654,55.8843257 91.6030534,66.6999738 80.9868972,73.8675181 C70.3707409,81.0350624 70.9475968,101.042 48.842317,93.9630949 C26.7370371,86.8841898 9.92792043,74.2484785 3.54185981,62.4780511 Z" id="路径-9" fill="#D3E8FF"></path>
        <path d="M10.8768869,58.971993 C5.64107646,50.4116822 7.52605857,30.0667357 17.1058724,27.9849794 C26.6856862,25.9032231 29.2024048,16.2891714 42.8350902,16.2891714 C56.4677756,16.2891714 60.9165454,27.6787221 74.3726092,27.9849794 C87.8286731,28.2912367 90.3371187,31.0192872 89.9610929,42.5979218 C89.5850671,54.1765564 83.0765951,62.0424822 74.3726092,67.2552417 C65.6686234,72.4680012 66.1415766,87.0185013 48.0178755,81.8702067 C29.8941743,76.7219121 16.1126973,67.5323039 10.8768869,58.971993 Z" id="路径-9" fill="#ACD4FF"></path>
        <path d="M48,39 C53.5228475,39 58,43.4771525 58,49 C58,54.5228475 53.5228475,59 48,59 C42.4771525,59 38,54.5228475 38,49 C38,43.4771525 42.4771525,39 48,39 Z M75,43 C78.8659932,43 82,46.1340068 82,50 C82,53.8659932 78.8659932,57 75,57 C71.1340068,57 68,53.8659932 68,50 C68,46.1340068 71.1340068,43 75,43 Z M21,43 C24.8659932,43 28,46.1340068 28,50 C28,53.8659932 24.8659932,57 21,57 C17.1340068,57 14,53.8659932 14,50 C14,46.1340068 17.1340068,43 21,43 Z" id="形状结合" stroke="url(#linearGradient-1)" stroke-width="4" fill="#FFFFFF"></path>
    </g>
</svg>