<?xml version="1.0" encoding="UTF-8"?>
<svg width="80px" height="80px" viewBox="0 0 80 80" version="1.1" xmlns="http://www.w3.org/2000/svg" xmlns:xlink="http://www.w3.org/1999/xlink">
    <title>ic/营销工具/顾问店铺备份 2</title>
    <g id="ic/营销工具/顾问店铺备份-2" stroke="none" stroke-width="1" fill="none" fill-rule="evenodd">
        <rect id="矩形" stroke="#5088F6" stroke-width="2" fill="#FFFFFF" x="24" y="27" width="40" height="37" rx="6"></rect>
        <path d="M19.3755051,24.1462523 L19.449539,23.9515204 L19.4655463,23.8795163 L24.6525861,13.4514518 L24.679932,13.396647 L24.7049434,13.3409677 C25.0634407,12.5390107 25.9655201,12 26.9493036,12 L27.0840319,12.0032067 L27.1844111,12.0081624 L62.1217289,12.0081624 L62.188426,12.0078709 L62.2151049,12.0075794 C63.2849277,12.0075794 64.2286928,12.5702028 64.6442163,13.495762 L69.514778,23.7914789 L69.5401229,23.9089593 L69.6178251,24.1136026 C69.866055,24.7584956 69.9950661,25.4338621 70,26.1142681 C69.988328,28.5682391 68.4352841,30.7977436 65.9864971,31.914828 C64.8383795,32.4213517 63.5705242,32.6858193 62.28447,32.6870505 L62.1800889,32.6864675 L62.0170143,32.6864675 C59.7142459,32.6864421 57.5241453,31.8153714 56.0112666,30.2977959 L53.2536716,27.5313212 L50.5087491,30.3068328 C49.0087294,31.8238754 46.8327339,32.6990026 44.4966651,32.7083311 C42.1958234,32.7069009 40.0082605,31.8351859 38.4979206,30.3179104 L35.7486627,27.557266 L33.0007389,30.3190764 C31.6270123,31.6990394 29.6903669,32.5546475 27.6046034,32.7030838 L26.8479238,32.717368 L26.6775126,32.7188256 C25.4476165,32.7188256 24.2150526,32.4660823 23.1338913,31.9970352 C20.5960636,30.8784932 19.011672,28.6399517 19,26.1719881 C19.0006488,25.4835492 19.1274225,24.7996436 19.3755051,24.1462523 L19.3755051,24.1462523 Z" id="路径" stroke="#5088F6" stroke-width="2" fill="#FFFFFF" fill-rule="nonzero"></path>
        <path d="M27.6426979,28 C33.1249777,28 37.5691193,32.0722139 37.5691193,37.0956848 C37.5691193,41.2271909 34.5630645,44.7152586 30.445734,45.8236821 C38.7078883,47.6639766 45,57.1162109 45,68.5 L45,68.5 L10,68.5 C10,57.0424212 16.3739469,47.5415192 24.7155877,45.7886054 C20.6619546,44.6447798 17.7162765,41.1854897 17.7162765,37.0956848 C17.7162765,32.0722139 22.1604181,28 27.6426979,28 Z" id="形状结合" stroke="#5088F6" stroke-width="2" fill="#FFFFFF" fill-rule="nonzero"></path>
        <path d="M23.8413936,45 L32.1586064,45 C32.5761946,45 32.7643614,45.2238576 32.5788888,45.5 L31.2355775,47.5 C31.0501049,47.7761424 30.700017,48 30.4536343,48 L25.5463657,48 C25.299983,48 24.9498951,47.7761424 24.7644225,47.5 L23.4211112,45.5 C23.2356386,45.2238576 23.4238054,45 23.8413936,45 Z" id="矩形" fill="#0666CE"></path>
        <path d="M23.8413936,51.0434783 L27.9927209,48 L32.1586064,51.0434783 C32.5761946,51.0434783 32.7643614,51.8610452 32.5788888,52.8695652 L31.2355775,60.173913 C31.0501049,61.182433 30.700017,62 30.4536343,62 L25.5463657,62 C25.299983,62 24.9498951,61.182433 24.7644225,60.173913 L23.4211112,52.8695652 C23.2356386,51.8610452 23.4238054,51.0434783 23.8413936,51.0434783 Z" id="矩形" fill="#70BCF8" transform="translate(28.000000, 55.000000) scale(1, -1) translate(-28.000000, -55.000000) "></path>
    </g>
</svg>