<?xml version="1.0" encoding="UTF-8"?>
<svg width="100px" height="100px" viewBox="0 0 100 100" version="1.1" xmlns="http://www.w3.org/2000/svg" xmlns:xlink="http://www.w3.org/1999/xlink">
    <title>ic/功能支持/CRM管理备份 2</title>
    <defs>
        <linearGradient x1="51.3724564%" y1="111.888106%" x2="51.1352858%" y2="-5.47328987%" id="linearGradient-1">
            <stop stop-color="#40B6F9" offset="0%"></stop>
            <stop stop-color="#5578F5" offset="100%"></stop>
        </linearGradient>
        <linearGradient x1="52.2197018%" y1="127.45394%" x2="52.2197018%" y2="-31.8789374%" id="linearGradient-2">
            <stop stop-color="#40B6F9" offset="0%"></stop>
            <stop stop-color="#5578F5" offset="100%"></stop>
        </linearGradient>
    </defs>
    <g id="ic/功能支持/CRM管理备份-2" stroke="none" stroke-width="1" fill="none" fill-rule="evenodd">
        <path d="M3.44411828,60.7210961 C-2.81459749,48.9078671 -0.561351795,20.831841 10.890043,17.9590173 C22.3414378,15.0861936 25.3498405,1.81880227 41.6459048,1.81880227 C57.9419692,1.81880227 63.2598824,17.5363823 79.3448191,17.9590173 C95.4297559,18.3816523 98.4282694,22.1463621 97.9787805,38.1248778 C97.5292916,54.1033935 89.749278,64.9583712 79.3448191,72.1519793 C68.9403603,79.3455874 69.5057131,99.4252776 47.8412361,92.320631 C26.1767591,85.2159844 9.70283405,72.5343251 3.44411828,60.7210961 Z" id="路径-9" fill="#D3E8FF"></path>
        <path d="M8.75564819,57.2155555 C3.43226133,48.5120611 5.34877248,27.8268162 15.0888225,25.7102395 C24.8288725,23.5936628 27.3876868,13.8188023 41.2483985,13.8188023 C55.1091102,13.8188023 59.632292,25.3988596 73.3134279,25.7102395 C86.9945638,26.0216194 89.5449668,28.7953005 89.1626514,40.5676044 C88.780336,52.3399083 82.1630005,60.337403 73.3134279,65.6373535 C64.4638553,70.9373039 64.9447194,85.731182 46.5178733,80.4967748 C28.0910272,75.2623675 14.0790351,65.9190499 8.75564819,57.2155555 Z" id="路径-9" fill="#ACD4FF"></path>
        <path d="M19.2706875,14.7215625 C19.2706875,14.7590625 19.2706875,14.7965625 19.2786875,14.833125 L19.2786875,14.61 C19.2786875,14.6470313 19.2706875,14.6840625 19.2706875,14.7215625 Z M23.0265625,14.7728281 L23.0265625,14.6798281 L23.0265625,14.7728281 Z" id="形状" fill="#999999" fill-rule="nonzero"></path>
        <path d="M38.1309375,28.49125 L38.0309375,28.39125 C38.0635089,28.425625 38.0966518,28.459375 38.1309375,28.49125 Z M40.510625,25.57875 C40.5703125,25.6321875 40.629375,25.6860938 40.6878125,25.7404688 C40.632276,25.6828217 40.5730915,25.6288041 40.510625,25.57875 L40.510625,25.57875 Z" id="形状" fill="#8C6239" fill-rule="nonzero"></path>
        <path d="M38.0923077,24 C45.2975897,24 51.1384615,29.8820867 51.1384615,37.1382114 C51.1384615,43.0914061 47.2068701,48.1197122 41.8158151,49.7335579 C52.702292,52.3572162 61,66.0288601 61,82.5 L61,82.5 L15,82.5 C15,65.9779691 23.3490622,52.2727602 34.2852507,49.7075089 C28.9373425,48.0678811 25.0461538,43.0607383 25.0461538,37.1382114 C25.0461538,29.8820867 30.8870256,24 38.0923077,24 Z" id="形状结合" stroke="url(#linearGradient-1)" stroke-width="4" fill="#FFFFFF" fill-rule="nonzero"></path>
        <path d="M84.5,56 C85.8807119,56 87,57.1192881 87,58.5 C87,59.8807119 85.8807119,61 84.5,61 L64.5,61 C63.1192881,61 62,59.8807119 62,58.5 C62,57.1192881 63.1192881,56 64.5,56 L84.5,56 Z M84.5,43 C85.8807119,43 87,44.1192881 87,45.5 C87,46.8807119 85.8807119,48 84.5,48 L64.5,48 C63.1192881,48 62,46.8807119 62,45.5 C62,44.1192881 63.1192881,43 64.5,43 L84.5,43 Z M84.5,31 C85.8807119,31 87,32.1192881 87,33.5 C87,34.8807119 85.8807119,36 84.5,36 L64.5,36 C63.1192881,36 62,34.8807119 62,33.5 C62,32.1192881 63.1192881,31 64.5,31 L84.5,31 Z" id="形状结合" fill="url(#linearGradient-2)"></path>
        <path d="M33,47 L44,47 C44.5522847,47 44.8011464,47.4477153 44.5558481,48 L42.7792403,52 C42.5339419,52.5522847 42.0709303,53 41.7450747,53 L35.2549253,53 C34.9290697,53 34.4660581,52.5522847 34.2207597,52 L32.4441519,48 C32.1988536,47.4477153 32.4477153,47 33,47 Z" id="矩形" fill="#057AD1"></path>
        <path d="M30.3172128,57.6521739 L38.4856771,52 L46.6827872,57.6521739 C47.5044651,57.6521739 47.8747164,59.1705126 47.5097666,61.0434783 L44.8665659,74.6086957 C44.5016161,76.4816613 43.8127568,78 43.3279557,78 L33.6720443,78 C33.1872432,78 32.4983839,76.4816613 32.1334341,74.6086957 L29.4902334,61.0434783 C29.1252836,59.1705126 29.4955349,57.6521739 30.3172128,57.6521739 Z" id="矩形" fill="#9EADF2" opacity="0.300000012" transform="translate(38.500000, 65.000000) scale(1, -1) translate(-38.500000, -65.000000) "></path>
        <path d="M33,58 L38.490373,53 L44,58 C44.5522847,58 44.8011464,59.3431458 44.5558481,61 L42.7792403,73 C42.5339419,74.6568542 42.0709303,76 41.7450747,76 L35.2549253,76 C34.9290697,76 34.4660581,74.6568542 34.2207597,73 L32.4441519,61 C32.1988536,59.3431458 32.4477153,58 33,58 Z" id="矩形" fill="#70BCF8" transform="translate(38.500000, 64.500000) scale(1, -1) translate(-38.500000, -64.500000) "></path>
    </g>
</svg>