<?xml version="1.0" encoding="UTF-8"?>
<svg width="139px" height="30px" viewBox="0 0 139 30" version="1.1" xmlns="http://www.w3.org/2000/svg" xmlns:xlink="http://www.w3.org/1999/xlink">
    <title>星河旅游logo-04</title>
    <g id="10-11" stroke="none" stroke-width="1" fill="none" fill-rule="evenodd">
        <g id="分销平台备份-" transform="translate(-360.000000, -15.000000)" fill="#FFFFFF" fill-rule="nonzero">
            <g id="星河旅游logo-04" transform="translate(360.000000, 15.000000)">
                <g id="编组" transform="translate(41.898865, 3.880597)">
                    <path d="M86.2562951,2.57088953 C85.5196124,2.88616718 84.7267565,3.04612423 83.9264954,3.04092183 C82.6743745,3.04092183 81.5401571,2.66962412 80.7196594,2.06748214 L80.995457,0.72761194 C81.8180232,1.33740238 82.961204,1.68784066 84.2257357,1.68784066 C84.9476358,1.68784066 85.6302347,1.59188732 86.2356103,1.37286339 C86.2418158,1.40137127 86.2494002,2.54516291 86.2562951,2.57088953 Z" id="路径"></path>
                    <path d="M57.3011868,2.57088953 C56.564504,2.88616718 55.7716481,3.04612423 54.971387,3.04092183 C53.7192662,3.04092183 52.5850488,2.66962412 51.7645511,2.06748214 L52.0403486,0.72761194 C52.8629148,1.33740238 54.0060956,1.68784066 55.2706274,1.68784066 C55.9925274,1.68784066 56.6751264,1.59188732 57.280502,1.37286339 C57.2867074,1.40137127 57.2942919,2.54516291 57.3011868,2.57088953 Z" id="路径"></path>
                    <path d="M10.3219989,12.4219964 C10.3219989,12.4219964 10.2971669,10.7980861 10.223361,10.2074481 L11.9243478,10.2074481 C11.8257099,10.7980861 11.8015677,12.4219964 11.8015677,12.4219964 L18.4344507,12.4219964 C19.4946359,12.4219964 20.2099333,12.3731208 20.9003988,12.2746811 L20.9003988,13.9481555 C20.0828924,13.8413634 19.2588892,13.7919076 18.4344507,13.8001518 L11.8015677,13.8001518 L11.8015677,16.1131398 C11.8015677,16.1131398 19.1497481,16.0642641 19.8153816,15.9658245 L19.8153816,17.6392988 C19.0511101,17.5408591 11.8015677,17.4912951 11.8015677,17.4912951 L11.8015677,20.221447 C11.8015677,20.221447 21.2452866,20.1725714 21.9116099,20.0741317 L21.9116099,21.7723881 C21.1225065,21.6491664 0.852758291,21.6491664 0.0643446852,21.7723881 L0.0643446852,20.0755085 C0.754120369,20.1739481 10.3219989,20.2228238 10.3219989,20.2228238 L10.3219989,17.4912951 C10.3219989,17.4912951 4.13264167,17.5160771 3.49321961,17.6145168 L3.49321961,15.9906065 C4.10918929,16.0890461 10.3219989,16.1131398 10.3219989,16.1131398 L10.3219989,13.8001518 L4.40372351,13.8001518 C3.41734428,15.1769303 2.52960298,16.1131398 1.24730998,17.0975364 C0.778952293,16.5316804 0.631340297,16.3843651 0.0643446852,15.9410424 C1.34594791,15.1046495 2.35715906,14.1939104 3.09935769,13.1606381 C3.96226707,11.9793621 4.30715491,11.3150665 4.75137045,10.0842264 L6.25508144,10.6500824 C5.8363876,11.5119458 5.61427983,11.958022 5.31836607,12.4219964 L10.3219989,12.4219964 Z M2.85034867,9.68909097 C2.92415467,9.17211062 2.92415467,1.84145314 2.85034867,1.10074627 C3.59047798,1.19918594 18.3606447,1.19918594 19.0511101,1.10074627 C18.9766144,1.69138427 18.9766144,9.12323498 19.0511101,9.68909097 C18.4592826,9.62025204 3.41734428,9.62025204 2.85034867,9.68909097 Z M4.42855543,4.71823195 L17.4480715,4.71823195 L17.4480715,2.57734128 L4.42855543,2.57734128 L4.42855543,4.71823195 Z M4.42855543,8.28615361 L17.4480715,8.28615361 L17.4480715,6.04820005 L4.42855543,6.04820005 L4.42855543,8.28615361 Z M17.4480715,6.06240381 L4.42855543,6.06240381 M17.603271,6.06240381 L4.58444474,6.06240381" id="形状"></path>
                    <path d="M25.3673251,6.31454042 C27.0695119,7.34594049 28.1051756,8.13324254 29.7576837,9.63289825 L28.7468594,10.9847199 C27.0909014,9.31316423 26.1318257,8.52654977 24.3806502,7.4944621 L25.3673251,6.31454042 Z M25.3673251,6.31454042 C27.0695119,7.34594049 28.1051756,8.13324254 29.7576837,9.63289825 L28.7468594,10.9847199 C27.0909014,9.31316423 26.1318257,8.52654977 24.3806502,7.4944621 L25.3673251,6.31454042 Z M29.8073625,14.3278314 C28.6233525,17.3532716 27.9078407,18.8261109 26.5513351,21.0876275 C26.4036788,21.3331007 26.1815045,21.7264079 25.9841695,22.0708955 L24.5289964,20.7644554 C25.7868345,19.4614533 27.2668469,16.6842367 28.4998456,13.3658789 L29.8073625,14.3278314 Z M44.8289713,20.0796058 C44.8289713,21.5792615 44.2369663,21.9966347 42.041442,21.9966347 C41.3514595,21.9966347 40.4876014,21.9478151 39.204924,21.8494883 C39.1310959,21.1618883 39.0565778,20.8909738 38.810254,20.1992482 C40.3392552,20.4199678 41.1285952,20.4942286 42.0911207,20.4942286 C43.028117,20.4942286 43.225452,20.3711482 43.225452,19.830007 L43.225452,2.94667538 L33.4083811,2.94667538 C32.3734073,2.94667538 31.4598705,2.99618258 30.8181868,3.09450939 L30.8181868,1.32462687 C31.4350311,1.42295367 32.3230386,1.47177328 33.4332204,1.47177328 L44.1134594,1.47177328 C45.2477906,1.47177328 46.1109587,1.42295367 46.8264706,1.32462687 L46.8264706,3.04362699 C46.1621699,2.96964453 45.4939031,2.93680585 44.8255214,2.94530018 L44.8289713,20.0796058 Z M32.4217061,15.4953763 C32.4217061,15.4953763 32.3968667,6.83161565 32.3230386,6.24096721 C32.939883,6.31454042 39.402259,6.31454042 40.0191033,6.24096721 C39.9445852,6.83092805 40.0191033,15.5318191 40.0191033,15.5318191 L32.4217061,15.4953763 Z M33.9783066,14.0576046 L38.3693552,14.0576046 L38.3693552,7.71586931 L33.9783066,7.71586931 L33.9783066,14.0576046 Z" id="形状"></path>
                    <path d="M51.6531,5.52961147 C50.5435994,5.52961147 49.9519577,5.55443955 49.3361814,5.65306222 L49.3361814,3.9985462 C49.9767818,4.09716887 50.6918546,4.14682504 51.7268828,4.14682504 L56.7806615,4.14682504 C57.6922586,4.14682504 58.3087244,4.12199696 58.9989731,4.02337429 L58.9989731,5.62547546 C58.4073314,5.55168088 57.8150001,5.52961147 56.7806615,5.52961147 L53.5755908,5.52961147 C53.5755908,5.99858641 53.5514562,6.36824902 53.5514562,6.59032245 C53.5514562,7.10757423 53.5266321,7.8475891 53.4769838,8.83381583 L56.3117613,8.83381583 C57.3723032,8.83381583 57.668124,8.83381583 58.1115105,8.78415966 C58.0625518,9.37589569 58.0625518,9.59796912 58.0377277,11.027653 C57.9880794,14.8249708 57.8653379,16.8712188 57.5695171,18.9912614 C57.1992238,21.5057947 56.7806615,21.9747697 54.8574811,21.9747697 C54.2391545,21.9757379 53.6214829,21.9344918 53.0087732,21.8513189 C52.9598145,21.0871656 52.8853421,20.6678469 52.7377764,20.2733562 C53.4342501,20.4266209 54.1444251,20.5091105 54.8574811,20.519568 C55.7449437,20.519568 55.9173335,20.2485281 56.1393715,18.47332 C56.3862337,16.4043129 56.5089752,14.109784 56.5089752,10.2145332 L53.4059592,10.2145332 C53.1839212,13.6414987 53.0611797,14.8001427 52.7164001,16.4519 C52.2645821,18.5790538 51.3376862,20.5764886 50.0050537,22.2947761 C49.5609777,21.6540736 49.3396292,21.4071721 48.8465944,21.0126814 C50.6215196,18.7443599 51.3359028,16.7967345 51.6813719,13.247008 C51.9275445,10.9538585 52.0261514,9.15382226 52.0999343,5.52961147 L51.6531,5.52961147 Z M68.9334511,3.28611808 C70.1160449,3.28611808 70.880766,3.23715158 71.4475836,3.13852891 L71.4475836,4.79028626 C70.7325108,4.71649167 70.017438,4.69166358 68.9824098,4.69166358 L61.7351436,4.69166358 C60.7490741,6.41583618 60.2070806,7.18205848 58.8265833,8.76071091 C58.4321555,8.3420818 58.1370242,8.14483646 57.516421,7.87379653 C58.945877,6.39445644 59.685774,5.43236813 60.4994537,3.90406154 C61.2634852,2.54817221 61.7813441,1.1674548 61.9040856,0.279850746 L63.5804038,0.649513351 C63.4328381,0.945381368 63.408014,1.01917596 63.1370173,1.70953466 C62.865331,2.37575495 62.6439825,2.91783482 62.4709032,3.28749742 L68.9334511,3.28611808 Z M71.3469079,10.5104013 C69.6754167,12.1835383 68.6865889,13.047004 67.2074846,14.0815075 C67.575262,14.9727355 68.0035583,15.8377602 68.489375,16.6705251 C69.4016617,18.1740036 70.2891243,19.1850584 71.8909701,20.5161197 C71.4227594,21.009233 71.201411,21.3547572 70.8566314,22.069944 C68.3424989,19.7029999 67.0640564,17.8291691 65.8773251,14.8215224 C65.187766,13.0214862 64.8664315,11.6655969 64.4471796,8.73174481 C63.9541448,8.8545059 63.9541448,8.8545059 62.4998647,9.175202 L62.4998647,20.1223186 C62.5682261,20.0949773 62.6341921,20.061989 62.6970786,20.023696 C62.7219027,20.023696 63.3135444,19.752656 64.4968278,19.2105762 C65.3594663,18.7912574 65.630463,18.6678066 66.5655051,18.2243495 L66.5655051,19.6788615 C65.1353595,20.4430148 65.1353595,20.4430148 62.078544,21.8237322 C61.8075473,21.9471829 61.5365506,22.0706337 61.1172987,22.267879 L60.4042945,20.909231 C60.7987224,20.5643965 60.8973293,20.3423231 60.9711121,19.5043752 L60.9711121,10.4828145 C60.9711121,8.85519557 60.9711121,8.85519557 60.847681,7.89379693 L61.168326,7.89379693 C62.2281784,7.89379693 64.5209624,7.35171707 66.418629,6.66135836 C67.8239505,6.14341691 68.6376302,5.72409813 69.2534065,5.20684636 L70.5104727,6.51307951 C70.3877312,6.56273569 70.338083,6.58756377 70.239476,6.63653027 C68.5155783,7.47516782 67.2812675,7.9434531 65.8021632,8.38691029 C66.0738495,10.5566091 66.0979841,10.6552318 66.6896258,12.7014798 C67.9715161,11.9124984 69.0810167,10.8524771 70.1160449,9.4469316 L71.3469079,10.5104013 Z" id="形状"></path>
                    <path d="M74.4231199,6.69797508 C76.1464743,7.68202678 77.0846684,8.34953039 78.3172114,9.40377319 L77.3314527,10.6582671 C75.9762068,9.37899986 75.1379673,8.76379551 73.4621775,7.80451713 L74.4231199,6.69797508 Z M78.3661547,14.4210606 C77.5286044,16.7820965 76.7889408,18.3565793 75.4336949,20.7919352 C75.1875999,21.2351025 75.1379673,21.3335077 74.9159992,21.8007602 L73.4869938,20.6212745 C73.8799186,20.2276538 74.2018412,19.7886153 74.5692603,19.1692821 C75.6784112,17.3732157 76.3188097,15.9466848 77.1811762,13.5113289 L78.3661547,14.4210606 Z M75.4336949,0.795729297 C77.0109088,1.80455433 77.8980916,2.49339052 78.9576099,3.54832148 L77.9235973,4.72918352 C76.9378386,3.64672665 75.9768962,2.85948528 74.3996823,1.82588692 L75.4336949,0.795729297 Z M85.1920166,3.96946808 C86.0054399,3.96946808 86.6217114,3.94469475 87.2131666,3.84628958 L87.2131666,5.39599898 C86.5479518,5.34645232 86.0054399,5.32236714 85.1920166,5.32236714 L82.6786766,5.32236714 C82.6538603,7.46250756 82.6538603,7.46250756 82.604917,8.93858511 L84.872162,8.93858511 C85.8082881,8.93858511 86.2763512,8.91381178 86.8436794,8.84017994 C86.7692305,9.40583763 86.7692305,9.40583763 86.7451036,11.6196099 C86.7202873,15.8262589 86.4983192,18.9999977 86.1777753,20.3776701 C85.9316803,21.4098921 85.3650414,21.804201 84.1573147,21.804201 C83.6536235,21.8044634 83.1507684,21.7632644 82.6538603,21.6810225 C82.6297334,21.0169596 82.5552844,20.6728856 82.3581327,20.0294672 C83.0729801,20.2262775 83.5906757,20.3246827 84.1083714,20.3246827 C84.7239536,20.3246827 84.872162,20.0542405 85.0444975,18.5293044 C85.2168329,17.0532269 85.3402251,13.6826777 85.3402251,10.3128168 L82.5311575,10.3128168 C82.4567086,11.936158 82.2843731,13.5354141 82.0624051,14.7651346 C81.7914938,16.3396173 81.1510953,18.2093156 80.3873047,19.6853931 C79.9681849,20.4726345 79.6228247,21.0135189 78.7604581,22.1455224 C78.3172114,21.6534965 77.9966675,21.358281 77.4300286,21.0135189 C78.9086666,19.3619635 79.5490651,18.2093156 80.2639125,16.0444018 C80.9801386,13.7329125 81.2248549,11.3243944 81.2744875,5.32030269 C80.309409,5.32030269 79.6724573,5.34438787 79.1795779,5.44279304 L79.1795779,3.81945181 C79.7710331,3.91785698 80.4362479,3.96740364 81.3730634,3.96740364 L85.1920166,3.96740364 L85.1920166,3.96946808 Z M94.2844342,3.86899847 C94.9756189,3.86911328 95.6661924,3.82798041 96.3524594,3.74581997 L96.3524594,5.3691612 C95.8106368,5.29552936 95.1702384,5.27075603 94.2844342,5.27075603 L89.404584,5.27075603 C88.8379451,6.50116474 88.4932742,7.06682243 87.4826992,8.44449482 C87.1132121,8.00132747 86.8664277,7.78043195 86.2749725,7.43566978 C87.3841234,6.10754406 87.901819,5.27075603 88.5180905,3.74581997 C89.0847294,2.29451574 89.3308244,1.21205886 89.3556407,0.0559701493 L91.0789951,0.35118566 C90.931476,0.768891524 90.9066597,0.843211513 90.7343242,1.53135956 C90.3896534,2.7122216 90.2662612,3.18291486 89.9946605,3.87106291 L94.2844342,3.86899847 Z M91.1548227,12.9463593 C91.1548227,12.1095713 91.1300064,11.740724 91.0562468,11.2734714 L91.647702,11.2734714 C92.474768,10.6275814 93.2121581,9.87480674 93.8404981,9.03492584 L90.8377255,9.03492584 C90.0955831,9.02644628 89.3539063,9.07568307 88.6194238,9.18218952 L88.6194238,7.55884828 C89.210879,7.65725345 89.975359,7.70611196 90.8866688,7.70611196 L93.2773059,7.70611196 C94.1893051,7.70611196 94.6821844,7.68202678 95.1006148,7.60770679 L95.9140381,8.61653183 C95.8032436,8.7201674 95.7040832,8.83553874 95.6183105,8.96060585 C94.8545198,9.92401311 93.7205527,11.0518878 92.6120911,12.0111661 L92.6120911,13.3874622 L94.4105838,13.3874622 C95.0862245,13.3888603 95.7612811,13.3477191 96.4317337,13.2642837 L96.4317337,14.8635398 C95.761105,14.782014 95.0861666,14.7408801 94.4105838,14.7403613 L92.6120911,14.7403613 L92.6120911,20.0790138 C92.6120911,21.5550914 92.1433388,21.9239387 90.2683292,21.9239387 C89.7995768,21.9239387 89.4052734,21.8991654 88.6911153,21.8503069 C88.7054809,21.3127963 88.6134174,20.7777416 88.420204,20.2758242 C89.3563301,20.4478612 89.8740257,20.4967197 90.5640568,20.4967197 C91.0321199,20.4967197 91.155512,20.3742293 91.155512,19.9062887 L91.155512,14.7417376 L89.6024251,14.7417376 C88.9188239,14.7423212 88.2358614,14.7834531 87.5571481,14.8649161 L87.5571481,13.26566 C88.2356158,13.3498107 88.918744,13.3909526 89.6024251,13.3888385 L91.155512,13.3888385 L91.1548227,12.9463593 Z" id="形状"></path>
                    <path d="M26.416625,0.72761194 C28.1219659,1.76592743 29.1595486,2.55850825 30.8151187,4.06821898 L29.8024213,5.42910448 C28.1433949,3.74634117 27.1832334,2.95445256 25.4281218,1.91544486 L26.416625,0.72761194 Z" id="路径"></path>
                </g>
                <g id="logo" transform="translate(0.007482, 0.060448)">
                    <path d="M36.5949174,17.2589552 C36.5949174,17.6241294 36.5844427,17.9873134 36.5634933,18.3485075 C31.8655831,25.3395522 23.8703818,29.9395962 14.7977812,29.9395962 C9.54327982,29.9491937 4.40857505,28.3743506 0.0673374613,25.4216418 C0.0224458204,24.7987562 -1.27589717e-14,24.1701493 -1.27589717e-14,23.5358209 C-1.27589717e-14,23.0706468 0.0122205022,22.6084577 0.0366615067,22.1492537 C4.58283339,25.5917524 10.1358998,27.4512943 15.8437564,27.4425373 C24.2931115,27.4425373 31.8064757,23.4522388 36.5949174,17.2589552 Z" id="路径"></path>
                    <path d="M23.8920795,23.3283582 C21.249436,24.0544319 18.5204807,24.4206866 15.7794118,24.4172371 C10.4547755,24.425438 5.22235726,23.031177 0.61127451,20.3753731 C0.576358789,19.7783582 0.558651531,19.1781095 0.558152735,18.5746269 C0.558152735,18.0865672 0.569874441,17.6014925 0.593317853,17.119403 C5.75024778,20.8172248 11.9435923,22.8015983 18.29484,22.7910448 C20.2741499,22.7934758 22.2489874,22.6035234 24.1913571,22.2238806 C24.0980822,22.5945274 23.998323,22.9626866 23.8920795,23.3283582 Z" id="路径"></path>
                    <path d="M20.122678,8.69701493 C20.1209738,10.0745471 20.3602424,11.4418135 20.8297214,12.7373134 C20.9509288,13.0716418 21.0866013,13.3985075 21.2367389,13.7179104 C21.5414497,14.5573529 21.7495356,15.4286141 21.8569917,16.3149254 C21.8769436,16.478607 21.8936533,16.6427861 21.9071207,16.8074627 C21.9320605,17.1218905 21.9445304,17.4393035 21.9445304,17.7597015 C21.9445304,18.0783582 21.9071207,18.7067164 21.9071207,18.7067164 C21.89914,18.7435323 21.8901617,18.7800995 21.8801858,18.8164179 C21.5150671,20.2343284 19.7852425,20.8641791 18.4998452,20.8560493 C15.2609133,20.8365672 1.05196078,13.7574627 1.05196078,13.7574627 L0.740712074,10.088806 C0.740712074,10.088806 14.5329205,17.9626866 15.9739422,18.3373134 C16.3001548,18.4223881 17.9993034,19.1291045 18.8133385,18.2544776 C19.6273736,17.3798507 19.0318111,15.3619403 18.2731424,14.2246269 C18.1347265,14.0179104 17.9618937,13.7679104 17.7733488,13.4843284 C17.7486584,13.4507463 17.5488906,13.1589552 17.045356,12.3328358 L17.0288958,12.3044776 C16.8957172,12.080597 16.7640351,11.8402985 16.6390867,11.5977612 C16.6385732,11.5963126 16.6385732,11.5947322 16.6390867,11.5932836 C16.1710657,10.5234225 15.9293498,9.36876304 15.9290506,8.20149254 C15.9290506,7.95273632 15.9397747,7.70522388 15.9612229,7.45895522 C16.0195901,6.77255185 16.1620603,6.09586792 16.3854489,5.44402985 C16.6695693,4.80179292 17.0058816,4.18381209 17.3910217,3.59626866 C19.0647317,0.984328358 22.2729876,0.220149254 23.9272446,0 C21.4987986,2.24310886 20.1196692,5.39571741 20.122678,8.69701493 Z" id="路径"></path>
                    <polygon id="路径" points="26.3162281 6.11119403 28.9618421 6.49477612 27.0472136 8.35597015 27.4991228 10.9835821 25.1333333 9.74328358 22.7675439 10.9835821 23.219453 8.35597015 21.3048246 6.49477612 23.9504386 6.11119403 25.1333333 3.72014925"></polygon>
                    <polygon id="路径" points="29.848452 14.8350746 31.5363777 15.0798507 30.3153251 16.2671642 30.6033798 17.9440299 29.0935243 17.1522388 27.5836687 17.9440299 27.8717234 16.2671642 26.6499226 15.0798507 28.3385965 14.8350746 29.0935243 13.3089552"></polygon>
                </g>
            </g>
        </g>
    </g>
</svg>