<?xml version="1.0" encoding="UTF-8"?>
<svg width="80px" height="80px" viewBox="0 0 80 80" version="1.1" xmlns="http://www.w3.org/2000/svg" xmlns:xlink="http://www.w3.org/1999/xlink">
    <title>ic/营销工具/活动专题备份 2</title>
    <g id="ic/营销工具/活动专题备份-2" stroke="none" stroke-width="1" fill="none" fill-rule="evenodd">
        <rect id="矩形" fill="#5088F6" x="15" y="9" width="50" height="2" rx="1"></rect>
        <path d="M16,16 L64,16 C64.5522847,16 65,16.4477153 65,17 L65,70.7843129 C65,71.3365976 64.5522847,71.7843129 64,71.7843129 C63.7563813,71.7843129 63.5211415,71.6953807 63.3384513,71.5342151 L39.5062748,50.5099469 L39.5062748,50.5099469 L16.6761487,71.4617542 C16.2692446,71.8351808 15.6366615,71.808042 15.2632349,71.4011378 C15.0939338,71.216659 15,70.9753793 15,70.7249891 L15,17 C15,16.4477153 15.4477153,16 16,16 Z" id="矩形" stroke="#5088F6" stroke-width="2"></path>
        <path d="M38.9790759,40.0443995 L36.2263634,41.9538528 C35.7725671,42.2686343 35.1495118,42.1559405 34.8347303,41.7021442 C34.7315632,41.5534161 34.6706985,41.3794749 34.6586274,41.1988709 L34.43521,37.856189 C34.4073892,37.439946 34.1240949,37.0847062 33.7244787,36.9649602 L30.5153198,36.0033276 C29.9862764,35.8447984 29.6859153,35.2874107 29.8444445,34.7583673 C29.8964012,34.5849775 29.9944454,34.4289411 30.128121,34.3068987 L32.6022365,32.0480959 C32.9103224,31.7668214 33.011429,31.3238447 32.8558935,30.9367516 L31.6068503,27.8281621 C31.4009403,27.315698 31.6494515,26.7333407 32.1619156,26.5274306 C32.3298717,26.4599452 32.5129954,26.4393121 32.6917574,26.4677318 L36.0003463,26.9937326 C36.412344,27.0592322 36.821716,26.862089 37.0273828,26.4991379 L38.6790102,23.5844228 C38.951288,23.1039196 39.5615375,22.9351196 40.0420406,23.2073974 C40.1995217,23.2966343 40.3298291,23.4269417 40.419066,23.5844228 L42.0706934,26.4991379 C42.2763602,26.862089 42.6857322,27.0592322 43.0977299,26.9937326 L46.4063188,26.4677318 C46.9517537,26.3810183 47.4642112,26.7528855 47.5509247,27.2983204 C47.5793443,27.4770824 47.5587113,27.6602061 47.4912259,27.8281621 L46.2421827,30.9367516 C46.0866472,31.3238447 46.1877538,31.7668214 46.4958397,32.0480959 L48.9699552,34.3068987 C49.3778236,34.6792719 49.4065982,35.3117827 49.0342249,35.7196511 C48.9121826,35.8533268 48.7561462,35.9513709 48.5827564,36.0033276 L45.3735976,36.9649602 C44.9739813,37.0847062 44.690687,37.439946 44.6628662,37.856189 L44.4394488,41.1988709 C44.4026175,41.7499262 43.9260413,42.1667871 43.374986,42.1299558 C43.194382,42.1178846 43.0204409,42.05702 42.8717128,41.9538528 L40.1190004,40.0443995 C39.7762225,39.8066274 39.3218537,39.8066274 38.9790759,40.0443995 Z" id="星形" stroke="#5088F6" stroke-width="2" transform="translate(39.549038, 33.049038) rotate(-30.000000) translate(-39.549038, -33.049038) "></path>
    </g>
</svg>