<?xml version="1.0" encoding="UTF-8"?>
<svg width="100px" height="100px" viewBox="0 0 100 100" version="1.1" xmlns="http://www.w3.org/2000/svg" xmlns:xlink="http://www.w3.org/1999/xlink">
    <title>ic/功能支持/分利机制备份 2</title>
    <defs>
        <linearGradient x1="52.2197018%" y1="90.1279138%" x2="51.8361209%" y2="14.0314182%" id="linearGradient-1">
            <stop stop-color="#40B6F9" offset="0%"></stop>
            <stop stop-color="#5578F5" offset="100%"></stop>
        </linearGradient>
        <linearGradient x1="52.2197018%" y1="103.644623%" x2="51.8361209%" y2="1.91574043%" id="linearGradient-2">
            <stop stop-color="#40B6F9" offset="0%"></stop>
            <stop stop-color="#5578F5" offset="100%"></stop>
        </linearGradient>
        <linearGradient x1="51.5847432%" y1="111.888106%" x2="51.3108878%" y2="-5.47328987%" id="linearGradient-3">
            <stop stop-color="#40B6F9" offset="0%"></stop>
            <stop stop-color="#5578F5" offset="100%"></stop>
        </linearGradient>
    </defs>
    <g id="ic/功能支持/分利机制备份-2" stroke="none" stroke-width="1" fill="none" fill-rule="evenodd">
        <path d="M3.54185981,62.4780511 C-2.8442008,50.7076237 -0.545108768,22.7333223 11.1392853,19.8709074 C22.8236793,17.0084925 25.8932934,3.7891714 42.5209305,3.7891714 C59.1485677,3.7891714 64.5746834,19.4498036 80.9868972,19.8709074 C97.3991109,20.2920111 100.458635,24.0430807 100,39.9637032 C99.5413654,55.8843257 91.6030534,66.6999738 80.9868972,73.8675181 C70.3707409,81.0350624 70.9475968,101.042 48.842317,93.9630949 C26.7370371,86.8841898 9.92792043,74.2484785 3.54185981,62.4780511 Z" id="路径-9" fill="#D3E8FF"></path>
        <path d="M10.8768869,58.971993 C5.64107646,50.4116822 7.52605857,30.0667357 17.1058724,27.9849794 C26.6856862,25.9032231 29.2024048,16.2891714 42.8350902,16.2891714 C56.4677756,16.2891714 60.9165454,27.6787221 74.3726092,27.9849794 C87.8286731,28.2912367 90.3371187,31.0192872 89.9610929,42.5979218 C89.5850671,54.1765564 83.0765951,62.0424822 74.3726092,67.2552417 C65.6686234,72.4680012 66.1415766,87.0185013 48.0178755,81.8702067 C29.8941743,76.7219121 16.1126973,67.5323039 10.8768869,58.971993 Z" id="路径-9" fill="#ACD4FF"></path>
        <path d="M54.1771356,69.4763434 C53.5134046,64.1817401 54.9752932,60.6966847 56.3615668,58.6693208 C56.4707884,58.5101476 56.5800099,58.3593519 56.6892315,58.2085563 C56.7480431,58.1247809 56.6892315,58.0158729 56.5884116,58.0242505 C56.5380016,58.032628 56.4875917,58.032628 56.4287801,58.032628 L53.7402494,58.032628 C52.8580753,58.032628 52.1439343,57.3205374 52.1439343,56.440896 L52.1439343,40.3560251 C52.1439343,39.4763838 52.8580753,38.7642931 53.7402494,38.7642931 L56.4287801,38.7642931 C57.3109542,38.7642931 58.0250952,39.4763838 58.0250952,40.3560251 L58.0250952,56.440896 C58.0250952,56.5330489 58.1343167,56.5833141 58.2099317,56.5162938 C59.3105489,55.5026119 60.4783794,54.8240314 61.5537917,54.4386647 C61.6378083,54.4051545 61.6714149,54.3046241 61.6126033,54.2376038 C60.612806,52.9558406 59.0080892,50.4677122 58.5880063,47.7785228 C58.0671035,44.4275081 60.8144458,43.505979 61.5117834,43.505979 C62.9652703,43.505979 64.1583058,45.0139357 65.628596,45.0139357 C67.0988862,45.0139357 68.1574952,43.8745906 69.8798351,43.8745906 C69.9218434,43.8745906 69.9722534,43.8745906 70.0142617,43.8829682 C70.05627,43.8829682 70.0982783,43.8745906 70.1486882,43.8745906 C70.5939761,43.8745906 71.039264,43.9499885 71.5013552,44.067274 C72.0306597,44.2013146 72.5515625,43.7908153 72.5515625,43.2462754 L72.5515625,29.1887685 C72.5515625,26.8765683 70.669591,25 68.3507333,25 L20.2008292,25 C17.8819715,25 16,26.8765683 16,29.1887685 L16,66.2174815 C16,68.5296817 17.8819715,70.40625 20.2008292,70.40625 L53.3453715,70.40625 C53.849471,70.40625 54.2359472,69.9706181 54.1771356,69.4763434 Z M34.7188949,56.440896 C34.7188949,57.3205374 34.0047539,58.032628 33.1225798,58.032628 L30.4340491,58.032628 C29.551875,58.032628 28.837734,57.3205374 28.837734,56.440896 L28.837734,50.4090694 C28.837734,49.529428 29.551875,48.8173374 30.4340491,48.8173374 L33.1225798,48.8173374 C34.0047539,48.8173374 34.7188949,49.529428 34.7188949,50.4090694 L34.7188949,56.440896 Z M46.371995,56.440896 C46.371995,57.3205374 45.6578541,58.032628 44.7756799,58.032628 L42.0871492,58.032628 C41.2049751,58.032628 40.4908342,57.3205374 40.4908342,56.440896 L40.4908342,45.3825473 C40.4908342,44.5029059 41.2049751,43.7908153 42.0871492,43.7908153 L44.7756799,43.7908153 C45.6578541,43.7908153 46.371995,44.5029059 46.371995,45.3825473 L46.371995,56.440896 Z" id="形状" fill="#FFFFFF" fill-rule="nonzero"></path>
        <path d="M74.1591797,43.1425781 L74.1591797,28.3945312 C74.1591797,25.96875 72.1904297,24 69.7646484,24 L19.3945312,24 C16.96875,24 15,25.96875 15,28.3945312 L15,67.2421875 C15,69.6679688 16.96875,71.6367188 19.3945312,71.6367188 L54.0673828,71.6367188" id="路径" stroke="url(#linearGradient-1)" stroke-width="4" fill-rule="nonzero"></path>
        <path d="M33,47 C34.1045695,47 35,47.8954305 35,49 L35,61 C35,62.1045695 34.1045695,63 33,63 L31,63 C29.8954305,63 29,62.1045695 29,61 L29,49 C29,47.8954305 29.8954305,47 31,47 L33,47 Z M44,42 C45.1045695,42 46,42.8954305 46,44 L46,61 C46,62.1045695 45.1045695,63 44,63 L42,63 C40.8954305,63 40,62.1045695 40,61 L40,44 C40,42.8954305 40.8954305,42 42,42 L44,42 Z M56.0000263,36 C57.1045958,36 58.0000263,36.8954305 58.0000263,38 L58.0004181,56.2069752 C57.3751455,56.8578359 56.770384,57.661194 56.2313243,58.6240234 C55.6433658,59.6746536 55.0388639,61.1177277 54.6693274,62.9998548 L54,63 C52.8954305,63 52,62.1045695 52,61 L52,38 C52,36.8954305 52.8954305,36 54,36 L56.0000263,36 Z" id="形状结合" fill="url(#linearGradient-2)"></path>
        <path d="M71.5576172,45.8320312 C71.5224609,45.8320312 71.4785156,45.8232422 71.4345703,45.8232422 C69.8964844,45.8232422 68.1914063,46.8339844 66.8818359,46.8339844 C65.5722656,46.8339844 63.9550781,45.3574219 63.1113281,45.3574219 C62.4169922,45.3574219 61.0634766,45.9023438 61.4941406,48.6533203 C61.8105469,50.6923828 63.3046875,52.5732422 64.2011719,53.5400391 C64.6054688,53.9794922 65.2207031,54.234375 65.8623047,54.234375 L77.2617188,54.234375 C77.9033203,54.234375 78.5185547,53.9794922 78.9228516,53.5400391 C79.8193359,52.5732422 81.3046875,50.6923828 81.6298828,48.6533203 C82.0605469,45.8935547 80.7070312,45.3574219 80.0126953,45.3574219 C79.1601562,45.3574219 77.5429688,46.8427734 76.2333984,46.8427734 C74.9238281,46.8427734 73.2275391,45.8320312 71.6806641,45.8320312 L71.5576172,45.8320312 L71.5576172,45.8320312 Z M88.2744141,79.0019531 C87.9140625,78 87.2460938,77.1914062 86.6484375,76.5234375 C86.3935547,76.2421875 85.7607422,74.8447266 86.1650391,72.2167969 C87.0439453,66.4775391 85.5761719,62.7421875 84.1962891,60.6240234 C82.2099609,57.5830078 79.4501953,56.1328125 77.6044922,56.0537109 C76.8662109,56.0185547 73.1484375,56.0449219 71.5664063,56.0537109 C69.984375,56.0449219 66.2666016,56.0273438 65.5283203,56.0537109 C63.6738281,56.1328125 60.9228516,57.5830078 58.9365234,60.6240234 C57.5478516,62.7509766 56.0800781,66.4863281 56.9677734,72.2167969 C57.3720703,74.8535156 56.7392578,76.2421875 56.484375,76.5234375 C55.8867188,77.1914062 55.21875,78 54.8583984,79.0019531 C54.3486328,80.3994141 54.5507813,81.8320312 55.4296875,83.0449219 C57.3105469,85.6464844 60.5537109,85.59375 63.1552734,85.5410156 C63.5332031,85.5322266 63.9287109,85.5234375 64.3066406,85.5234375 L78.8525391,85.5234375 C79.2304688,85.5234375 79.6171875,85.5322266 80.0039063,85.5410156 C80.3642578,85.5498047 80.7333984,85.5585938 81.1113281,85.5585938 C83.4755859,85.5585938 86.1035156,85.2949219 87.7294922,83.0449219 C88.5820313,81.8320312 88.7841797,80.390625 88.2744141,79.0019531 Z" id="形状" fill="url(#linearGradient-3)" fill-rule="nonzero"></path>
        <path d="M75.4951172,69.3515625 C76.3740234,69.3515625 76.8662109,69.8349609 76.8662109,70.7226562 C76.8662109,71.5927734 76.3828125,72.0761719 75.4951172,72.0761719 L72.9550781,72.0761719 L72.9550781,72.5507812 L75.4863281,72.5507812 C76.3652344,72.5507812 76.8574219,73.0341797 76.8574219,73.921875 C76.8574219,74.7919922 76.3740234,75.2753906 75.4863281,75.2753906 L72.9550781,75.2753906 L72.9550781,77.3144531 C72.9550781,77.9121094 72.8671875,78.2900391 72.6738281,78.5185547 C72.4716797,78.7558594 72.09375,78.8701172 71.5224609,78.8701172 C71.0302734,78.8701172 70.6699219,78.7646484 70.4326172,78.5449219 C70.1865234,78.3251953 70.0722656,77.9208984 70.0722656,77.3232422 L70.0722656,75.2841797 L67.5761719,75.2841797 C66.6972656,75.2841797 66.2050781,74.8007812 66.2050781,73.9306641 C66.2050781,73.0517578 66.6796875,72.5595703 67.5410156,72.5595703 L70.0722656,72.5595703 L70.0722656,72.0761719 L67.5761719,72.0761719 C66.6972656,72.0761719 66.2050781,71.5927734 66.2050781,70.7226562 C66.2050781,69.84375 66.6796875,69.3515625 67.5410156,69.3515625 L68.6396484,69.3515625 C68.3232422,68.8330078 67.9980469,68.3056641 67.6728516,67.7783203 C67.2597656,67.1191406 66.8554688,66.4599609 66.4599609,65.8095703 C66.2050781,65.4052734 66.1171875,65.0361328 66.1962891,64.7021484 C66.2666016,64.3681641 66.46875,64.0869141 66.7851563,63.8671875 C67.1455078,63.6210938 67.4970703,63.515625 67.8222656,63.5683594 C68.1650391,63.6210938 68.4726563,63.8759766 68.7539063,64.3505859 L71.5400391,69.0087891 C71.953125,68.296875 72.3662109,67.6025391 72.7792969,66.8994141 C73.2714844,66.0732422 73.7548828,65.2470703 74.2470703,64.4121094 C74.4052734,64.1484375 74.5546875,63.9550781 74.7041016,63.8232422 C74.8710938,63.6738281 75.046875,63.5859375 75.2314453,63.5595703 C75.4160156,63.5332031 75.6005859,63.5595703 75.7763672,63.6386719 C75.9169922,63.7001953 76.0664063,63.7880859 76.2246094,63.8847656 C76.6289063,64.1396484 76.8486328,64.4208984 76.8837891,64.7373047 C76.9189453,65.0273437 76.8222656,65.3789062 76.5761719,65.8007812 L74.4316406,69.3515625 L75.4951172,69.3515625 L75.4951172,69.3515625 Z" id="路径" fill="#FFFFFF" fill-rule="nonzero"></path>
    </g>
</svg>