<?xml version="1.0" encoding="UTF-8"?>
<svg width="100px" height="100px" viewBox="0 0 100 100" version="1.1" xmlns="http://www.w3.org/2000/svg" xmlns:xlink="http://www.w3.org/1999/xlink">
    <title>ic/功能支持/在线商城备份</title>
    <defs>
        <linearGradient x1="50%" y1="-82.6152187%" x2="50%" y2="159.638136%" id="linearGradient-1">
            <stop stop-color="#66B3FB" offset="0%"></stop>
            <stop stop-color="#53A0FD" offset="47.5247532%"></stop>
            <stop stop-color="#98E1F1" offset="100%"></stop>
        </linearGradient>
        <linearGradient x1="52.2197018%" y1="55.9606856%" x2="51.8361209%" y2="44.6571504%" id="linearGradient-2">
            <stop stop-color="#40B6F9" offset="0%"></stop>
            <stop stop-color="#5578F5" offset="100%"></stop>
        </linearGradient>
    </defs>
    <g id="ic/功能支持/在线商城备份" stroke="none" stroke-width="1" fill="none" fill-rule="evenodd">
        <path d="M3.54185981,62.4780511 C-2.8442008,50.7076237 -0.545108768,22.7333223 11.1392853,19.8709074 C22.8236793,17.0084925 25.8932934,3.7891714 42.5209305,3.7891714 C59.1485677,3.7891714 64.5746834,19.4498036 80.9868972,19.8709074 C97.3991109,20.2920111 100.458635,24.0430807 100,39.9637032 C99.5413654,55.8843257 91.6030534,66.6999738 80.9868972,73.8675181 C70.3707409,81.0350624 70.9475968,101.042 48.842317,93.9630949 C26.7370371,86.8841898 9.92792043,74.2484785 3.54185981,62.4780511 Z" id="路径-9" fill="#D3E8FF"></path>
        <path d="M10.8768869,58.971993 C5.64107646,50.4116822 7.52605857,30.0667357 17.1058724,27.9849794 C26.6856862,25.9032231 29.2024048,16.2891714 42.8350902,16.2891714 C56.4677756,16.2891714 60.9165454,27.6787221 74.3726092,27.9849794 C87.8286731,28.2912367 90.3371187,31.0192872 89.9610929,42.5979218 C89.5850671,54.1765564 83.0765951,62.0424822 74.3726092,67.2552417 C65.6686234,72.4680012 66.1415766,87.0185013 48.0178755,81.8702067 C29.8941743,76.7219121 16.1126973,67.5323039 10.8768869,58.971993 Z" id="路径-9" fill="#ACD4FF"></path>
        <g id="编组" transform="translate(20.833333, 22.916667)">
            <rect id="矩形" fill="#5088F6" x="6.25" y="0" width="47.9166667" height="4" rx="2"></rect>
            <rect id="矩形" fill="#FFFFFF" x="4.16666667" y="18.75" width="52.0833333" height="43.75" rx="1"></rect>
            <path d="M30.2083333,33.5 C36.4445486,33.5 41.5,38.5554514 41.5,44.7916667 L41.5,60.4166667 C41.5,60.9689514 41.0522847,61.4166667 40.5,61.4166667 L19.9166667,61.4166667 C19.3643819,61.4166667 18.9166667,60.9689514 18.9166667,60.4166667 L18.9166667,44.7916667 C18.9166667,38.5554514 23.972118,33.5 30.2083333,33.5 Z" id="矩形" fill="#DFF1FF"></path>
            <path d="M30.2083333,37.5 C34.2354096,37.5 37.5,40.7645904 37.5,44.7916667 L37.5,60.4166667 C37.5,60.9689514 37.0522847,61.4166667 36.5,61.4166667 L23.9166667,61.4166667 C23.3643819,61.4166667 22.9166667,60.9689514 22.9166667,60.4166667 L22.9166667,44.7916667 C22.9166667,40.7645904 26.181257,37.5 30.2083333,37.5 Z" id="矩形" fill="url(#linearGradient-1)"></path>
            <path d="M54.125,11.5 L54.125,59.3125 C54.125,61.0729076 53.2683715,62.5 52.2116667,62.5 L8.205,62.5 C7.14829518,62.5 6.29166667,61.0729076 6.29166667,59.3125 L6.29166667,11.5" id="路径" stroke="#5DAAFC" stroke-width="4" stroke-linecap="round" stroke-linejoin="round"></path>
            <path d="M52.8721555,26.7509173 C48.708637,26.7431815 45.3354571,23.5249144 45.327349,19.552605 C45.450078,22.2027528 44.0380858,24.7032729 41.6508896,26.0633074 C39.2636934,27.423342 36.2866556,27.423342 33.8994594,26.0633074 C31.5122632,24.7032729 30.100271,22.2027528 30.223,19.552605 C30.3457284,22.2027524 28.9337361,24.703272 26.5465401,26.0633062 C24.1593441,27.4233404 21.1823068,27.4233404 18.7951108,26.0633062 C16.4079148,24.703272 14.9959225,22.2027524 15.1186509,19.552605 C15.160196,22.4175313 13.4203312,25.0342398 10.6860406,26.2191283 C7.95174999,27.4040169 4.74161773,26.9323599 2.50766641,25.0174997 C0.273715083,23.1026395 -0.560365212,20.1077475 0.382700762,17.3874877 C1.51185823,14.3634921 3.22640311,11.5687937 5.43713161,9.14879426 C5.89331811,8.62896568 6.56852255,8.33005884 7.27912548,8.33333333 L53.9920877,8.33333333 C54.8128028,8.33475333 55.5752253,8.73827916 56.0109129,9.40185992 C57.6844212,11.8372852 59.0309999,14.4634393 60.0190914,17.2187772 C60.7977394,19.4158419 60.4191384,21.8362562 59.0020633,23.7206879 C57.5849881,25.6051197 55.3030563,26.7226915 52.8721555,26.7227988 L52.8721555,26.7509173 Z" id="路径" fill="url(#linearGradient-2)" fill-rule="nonzero"></path>
        </g>
    </g>
</svg>