<?xml version="1.0" encoding="UTF-8"?>
<svg width="100px" height="100px" viewBox="0 0 100 100" version="1.1" xmlns="http://www.w3.org/2000/svg" xmlns:xlink="http://www.w3.org/1999/xlink">
    <title>ic/功能支持/多渠道报价备份 2</title>
    <defs>
        <linearGradient x1="51.5193966%" y1="111.888106%" x2="51.2568336%" y2="-5.47328987%" id="linearGradient-1">
            <stop stop-color="#40B6F9" offset="0%"></stop>
            <stop stop-color="#5578F5" offset="100%"></stop>
        </linearGradient>
        <rect id="path-2" x="47.1666667" y="33.4166667" width="14.5833333" height="4.16666667" rx="1"></rect>
        <filter x="-6.9%" y="-24.0%" width="113.7%" height="196.0%" filterUnits="objectBoundingBox" id="filter-3">
            <feOffset dx="0" dy="2" in="SourceAlpha" result="shadowOffsetOuter1"></feOffset>
            <feColorMatrix values="0 0 0 0 0.874509804   0 0 0 0 0.945098039   0 0 0 0 1  0 0 0 0.813397174 0" type="matrix" in="shadowOffsetOuter1"></feColorMatrix>
        </filter>
        <rect id="path-4" x="47.1666667" y="42.9166667" width="14.5833333" height="4.16666667" rx="1"></rect>
        <filter x="-6.9%" y="-24.0%" width="113.7%" height="196.0%" filterUnits="objectBoundingBox" id="filter-5">
            <feOffset dx="0" dy="2" in="SourceAlpha" result="shadowOffsetOuter1"></feOffset>
            <feColorMatrix values="0 0 0 0 0.874509804   0 0 0 0 0.945098039   0 0 0 0 1  0 0 0 0.813397174 0" type="matrix" in="shadowOffsetOuter1"></feColorMatrix>
        </filter>
        <path d="M30.4166667,62.5 L43.25,62.5 L43.25,62.5 L43.25,66.6666667 L30.4166667,66.6666667 C29.8643819,66.6666667 29.4166667,66.2189514 29.4166667,65.6666667 L29.4166667,63.5 C29.4166667,62.9477153 29.8643819,62.5 30.4166667,62.5 Z" id="path-6"></path>
        <filter x="-7.2%" y="-24.0%" width="114.5%" height="196.0%" filterUnits="objectBoundingBox" id="filter-7">
            <feOffset dx="0" dy="2" in="SourceAlpha" result="shadowOffsetOuter1"></feOffset>
            <feColorMatrix values="0 0 0 0 0.874509804   0 0 0 0 0.945098039   0 0 0 0 1  0 0 0 0.813397174 0" type="matrix" in="shadowOffsetOuter1"></feColorMatrix>
        </filter>
        <linearGradient x1="52.2197018%" y1="93.5341929%" x2="51.8361209%" y2="10.9782061%" id="linearGradient-8">
            <stop stop-color="#40B6F9" offset="0%"></stop>
            <stop stop-color="#5578F5" offset="100%"></stop>
        </linearGradient>
    </defs>
    <g id="ic/功能支持/多渠道报价备份-2" stroke="none" stroke-width="1" fill="none" fill-rule="evenodd">
        <path d="M3.54185981,62.4780511 C-2.8442008,50.7076237 -0.545108768,22.7333223 11.1392853,19.8709074 C22.8236793,17.0084925 25.8932934,3.7891714 42.5209305,3.7891714 C59.1485677,3.7891714 64.5746834,19.4498036 80.9868972,19.8709074 C97.3991109,20.2920111 100.458635,24.0430807 100,39.9637032 C99.5413654,55.8843257 91.6030534,66.6999738 80.9868972,73.8675181 C70.3707409,81.0350624 70.9475968,101.042 48.842317,93.9630949 C26.7370371,86.8841898 9.92792043,74.2484785 3.54185981,62.4780511 Z" id="路径-9" fill="#D3E8FF"></path>
        <path d="M10.8768869,58.971993 C5.64107646,50.4116822 7.52605857,30.0667357 17.1058724,27.9849794 C26.6856862,25.9032231 29.2024048,16.2891714 42.8350902,16.2891714 C56.4677756,16.2891714 60.9165454,27.6787221 74.3726092,27.9849794 C87.8286731,28.2912367 90.3371187,31.0192872 89.9610929,42.5979218 C89.5850671,54.1765564 83.0765951,62.0424822 74.3726092,67.2552417 C65.6686234,72.4680012 66.1415766,87.0185013 48.0178755,81.8702067 C29.8941743,76.7219121 16.1126973,67.5323039 10.8768869,58.971993 Z" id="路径-9" fill="#ACD4FF"></path>
        <path d="M68,22.9166667 C68.5522847,22.9166667 69,23.3643819 69,23.9166667 L68.9993333,52.0826667 L46.8333333,52.0833333 C45.2356524,52.0833333 43.9296725,53.3322533 43.838426,54.9070605 L43.8333333,55.0833333 L43.8333333,83.2496667 L20.0833333,83.25 C19.5310486,83.25 19.0833333,82.8022847 19.0833333,82.25 L19.0833333,23.9166667 C19.0833333,23.3643819 19.5310486,22.9166667 20.0833333,22.9166667 L68,22.9166667 Z" id="形状结合" fill="#FFFFFF"></path>
        <path d="M43.8333333,83.25 L20.0833333,83.25 C19.5310486,83.25 19.0833333,82.8022847 19.0833333,82.25 L19.0833333,23.9166667 C19.0833333,23.3643819 19.5310486,22.9166667 20.0833333,22.9166667 L68,22.9166667 C68.5522847,22.9166667 69,23.3643819 69,23.9166667 L68.9993333,52.0826667" id="路径" stroke="url(#linearGradient-1)" stroke-width="4"></path>
        <polygon id="¥" fill="#70BCF8" fill-rule="nonzero" opacity="0.200000003" points="37.1358504 60.3410938 37.1358504 50.7999147 42.54407 50.7999147 42.54407 48.6496587 37.1358504 48.6496587 37.1358504 45.9455489 37.16843 45.9129693 42.54407 45.9129693 42.54407 43.7627133 38.3738766 43.7627133 44.6291667 32.425 40.0028584 32.425 35.0833333 42.2314704 30.1638083 32.425 25.5375 32.425 31.7927901 43.7627133 27.6551763 43.7627133 27.6551763 45.9129693 32.9982366 45.9129693 33.0308163 45.9455489 33.0308163 48.6496587 27.6551763 48.6496587 27.6551763 50.7999147 33.0308163 50.7999147 33.0308163 60.3410938"></polygon>
        <polygon id="¥" fill="#5088F6" fill-rule="nonzero" points="36.9208333 58.4166667 36.9208333 49.875 41.7625 49.875 41.7625 47.95 36.9208333 47.95 36.9208333 45.5291667 36.95 45.5 41.7625 45.5 41.7625 43.575 38.0291667 43.575 43.6291667 33.425 39.4875 33.425 35.0833333 42.2041667 30.6791667 33.425 26.5375 33.425 32.1375 43.575 28.4333333 43.575 28.4333333 45.5 33.2166667 45.5 33.2458333 45.5291667 33.2458333 47.95 28.4333333 47.95 28.4333333 49.875 33.2458333 49.875 33.2458333 58.4166667"></polygon>
        <g id="矩形">
            <use fill="black" fill-opacity="1" filter="url(#filter-3)" xlink:href="#path-2"></use>
            <use fill="#5088F6" fill-rule="evenodd" xlink:href="#path-2"></use>
        </g>
        <g id="矩形">
            <use fill="black" fill-opacity="1" filter="url(#filter-5)" xlink:href="#path-4"></use>
            <use fill="#5088F6" fill-rule="evenodd" xlink:href="#path-4"></use>
        </g>
        <g id="矩形">
            <use fill="black" fill-opacity="1" filter="url(#filter-7)" xlink:href="#path-6"></use>
            <use fill="#5088F6" fill-rule="evenodd" xlink:href="#path-6"></use>
        </g>
        <rect id="矩形" fill="url(#linearGradient-8)" x="46.8333333" y="55.0833333" width="38.75" height="32.5" rx="3"></rect>
        <g id="编组" transform="translate(54.000000, 60.250000)">
            <path d="M22.3813657,9.69515382 L22.3813657,13.1438954 C22.3813657,13.2708745 22.0378065,13.3738115 21.6140046,13.3738115 L3.96469907,13.3738115 C3.54089723,13.3738115 3.19733796,13.2708745 3.19733796,13.1438954 L3.19733796,9.69515382" id="路径" stroke="#FFFFFF" stroke-width="2" stroke-linecap="round" stroke-linejoin="round" transform="translate(12.789352, 11.534483) scale(1, -1) translate(-12.789352, -11.534483) "></path>
            <rect id="矩形" fill="#FFFFFF" x="11.9900174" y="5.15699671" width="1.59866898" height="13.1331516" rx="0.799334491"></rect>
            <rect id="矩形" fill="#FFFFFF" x="9.59201389" y="13.3738115" width="6.39467593" height="6.87599562" rx="1"></rect>
            <rect id="矩形" fill="#FFFFFF" x="7.99334491" y="0" width="9.59201389" height="6.87599562" rx="1"></rect>
            <rect id="矩形" fill="#FFFFFF" x="19.1840278" y="13.3738115" width="6.39467593" height="6.87599562" rx="1"></rect>
            <rect id="矩形" fill="#FFFFFF" x="0" y="13.3738115" width="6.39467593" height="6.87599562" rx="1"></rect>
        </g>
    </g>
</svg>