<?xml version="1.0" encoding="UTF-8"?>
<svg width="100px" height="100px" viewBox="0 0 100 100" version="1.1" xmlns="http://www.w3.org/2000/svg" xmlns:xlink="http://www.w3.org/1999/xlink">
    <title>ic/功能支持/订单管理备份 2</title>
    <defs>
        <linearGradient x1="51.6797063%" y1="111.888106%" x2="51.3894406%" y2="-5.47328987%" id="linearGradient-1">
            <stop stop-color="#40B6F9" offset="0%"></stop>
            <stop stop-color="#5578F5" offset="100%"></stop>
        </linearGradient>
        <linearGradient x1="52.1795501%" y1="111.888106%" x2="51.8029077%" y2="-5.47328987%" id="linearGradient-2">
            <stop stop-color="#40B6F9" offset="0%"></stop>
            <stop stop-color="#5578F5" offset="100%"></stop>
        </linearGradient>
    </defs>
    <g id="ic/功能支持/订单管理备份-2" stroke="none" stroke-width="1" fill="none" fill-rule="evenodd">
        <path d="M3.54185981,62.4780511 C-2.8442008,50.7076237 -0.545108768,22.7333223 11.1392853,19.8709074 C22.8236793,17.0084925 25.8932934,3.7891714 42.5209305,3.7891714 C59.1485677,3.7891714 64.5746834,19.4498036 80.9868972,19.8709074 C97.3991109,20.2920111 100.458635,24.0430807 100,39.9637032 C99.5413654,55.8843257 91.6030534,66.6999738 80.9868972,73.8675181 C70.3707409,81.0350624 70.9475968,101.042 48.842317,93.9630949 C26.7370371,86.8841898 9.92792043,74.2484785 3.54185981,62.4780511 Z" id="路径-9" fill="#D3E8FF"></path>
        <path d="M10.8768869,58.971993 C5.64107646,50.4116822 7.52605857,30.0667357 17.1058724,27.9849794 C26.6856862,25.9032231 29.2024048,16.2891714 42.8350902,16.2891714 C56.4677756,16.2891714 60.9165454,27.6787221 74.3726092,27.9849794 C87.8286731,28.2912367 90.3371187,31.0192872 89.9610929,42.5979218 C89.5850671,54.1765564 83.0765951,62.0424822 74.3726092,67.2552417 C65.6686234,72.4680012 66.1415766,87.0185013 48.0178755,81.8702067 C29.8941743,76.7219121 16.1126973,67.5323039 10.8768869,58.971993 Z" id="路径-9" fill="#ACD4FF"></path>
        <path d="M41.7080794,28.1440125 L53.1404836,28.1440125 C54.4030895,28.0007086 55.368595,26.6680003 55.3634715,25.0756021 C55.3666032,23.4614212 54.3735599,22.1201797 53.0916272,22.0071916 L41.7080794,22.0071916 C40.4883708,22.0945441 39.5075815,23.3002945 39.4118273,24.8301292 C39.3580921,25.6544642 39.5715706,26.4711381 40.0038692,27.0950187 C40.4361679,27.7188994 41.050672,28.0971456 41.7080794,28.1440125 Z" id="路径" fill="#5088F6" fill-rule="nonzero"></path>
        <path d="M66.274354,26.198859 C68.1058635,26.0059482 69.9183409,26.7358415 71.205491,28.1846513 C72.4926412,29.6334612 73.1164855,31.6458796 72.9027601,33.6597603 L72.9027601,33.6597603 L72.9029075,54.2203606 C71.9564673,54.0752621 70.9870228,54 70,54 C59.5065898,54 51,62.5065898 51,73 C51,77.4274142 52.5143369,81.5011361 55.0533076,84.7314627 L28.4301205,84.7310346 C23.7279178,84.7310346 22,82.1087932 22,77.3637848 L22,77.3637848 L22,33.6597603 C22,29.2269236 23.1897139,26.198859 28.0618757,26.198859 L28.0618757,26.198859 L34.0104453,26.198859 L34.0104453,27.2602424 C33.8692042,29.957759 35.6324155,32.3221415 38.061138,32.6920283 L38.061138,32.6920283 L56.4450509,32.6920283 C58.7829612,32.2080717 60.424658,29.8761788 60.2691313,27.2602424 C60.2985347,26.9071899 60.2985347,26.5519115 60.2691313,26.198859 L60.2691313,26.198859 Z" id="形状结合" fill="#FFFFFF" fill-rule="nonzero"></path>
        <path d="M55.0533076,84.7314627 L28.4301205,84.7314627 C23.8201179,84.7314627 22.068905,82.210618 22.0020024,77.6404508 L22,77.3637848 L22.0012874,33.4103562 L22.0012874,33.4103562 L22.0118876,32.9208115 L22.0118876,32.9208115 L22.0338582,32.4440541 C22.0385121,32.3656892 22.0436733,32.287879 22.0493586,32.2106342 L22.0898917,31.7540393 L22.0898917,31.7540393 L22.1438045,31.3115401 L22.1438045,31.3115401 L22.2119007,30.8836601 C22.7149387,28.0810206 24.2171118,26.2878848 27.7900091,26.202082 L28.0618757,26.198859 L34.0104453,26.198859 L34.0104453,27.2602424 C33.8733584,29.8784203 35.5303447,32.182772 37.8485976,32.6542575 L38.061138,32.6920283 L56.4450509,32.6920283 C58.7829612,32.2080717 60.424658,29.8761788 60.2691313,27.2602424 C60.2887335,27.0248741 60.2952676,26.7885164 60.2887335,26.5524886 L60.2691313,26.198859 L66.274354,26.198859 C68.1058635,26.0059482 69.9183409,26.7358415 71.205491,28.1846513 C72.4282837,29.5610207 73.0524428,31.4460468 72.9285589,33.3577595 L72.9027601,33.6597603 L72.9029075,54.2203606" id="路径" stroke="url(#linearGradient-1)" stroke-width="4" fill-rule="nonzero"></path>
        <path d="M31.3321562,65.2883787 C31.3401904,64.8082185 31.5378442,64.3509381 31.8816209,64.017169 C32.2253975,63.6834 32.6871257,63.5004934 33.1651953,63.5087006 L45.3854556,63.5087006 C46.3862514,63.4913917 47.2158288,64.2836158 47.2490453,65.2883787 L47.2490453,65.6259038 C47.2411293,66.111521 47.0392684,66.5735779 46.688824,66.9082429 C46.3383796,67.2429079 45.8687454,67.4221108 45.3854556,67.4055819 L33.1651953,67.4055819 C32.6871257,67.4137892 32.2253975,67.2308826 31.8816208,66.8971135 C31.5378442,66.5633444 31.3401904,66.1060641 31.3321562,65.6259038 L31.3321562,65.2883787 Z M31.3321562,55.0092036 C31.3401904,54.5290434 31.5378442,54.0717631 31.8816209,53.737994 C32.2253975,53.4042249 32.6871257,53.2213183 33.1651953,53.2295256 L50.9151234,53.2295256 C51.3984132,53.2129967 51.8680474,53.3921996 52.2184918,53.7268646 C52.5689362,54.0615296 52.7707971,54.5235865 52.7787131,55.0092036 L52.7787131,55.3774129 C52.745735,56.3870989 51.9209586,57.1883182 50.9151234,57.1877754 L33.1651953,57.1877754 C32.1712304,57.17194 31.3646243,56.3753125 31.3321562,55.3774129 L31.3321562,55.0092036 Z M56.4142405,45.1902902 C56.3809767,46.2967338 55.4693461,47.1713491 54.3673469,47.1540729 L32.9818914,47.1540729 C32.4552084,47.1622737 31.9468597,46.9599683 31.5687083,46.5916742 C31.1905569,46.2233802 30.9735889,45.7192758 30.9655484,45.1902902 C30.9401683,44.640192 31.142373,44.1040342 31.5242459,43.7088708 C31.9061187,43.3137074 32.4336723,43.0947087 32.9818914,43.1037711 L54.3673469,43.1037711 C54.9208077,43.0860527 55.4564973,43.3012423 55.8451409,43.6974096 C56.2337845,44.0935768 56.4400789,44.6347352 56.4142405,45.1902902 L56.4142405,45.1902902 Z" id="形状" fill="#5088F6" fill-rule="nonzero"></path>
        <path d="M81.2761399,69.3808844 C81.0428848,68.5348549 80.7084136,67.7202369 80.2800181,66.9547898 L82.7703225,64.4930172 L78.4300778,60.1046402 L75.9397734,62.5664127 C75.1722637,62.1456573 74.3610218,61.810658 73.5206206,61.5674326 L73.5206206,57.9996463 L67.401587,57.9996463 L67.401587,61.5674326 C66.5589699,61.8042507 65.7470186,62.1395429 64.9824342,62.5664127 L62.4921299,60.1046402 L58.1518852,64.4573394 L60.6421895,66.9191119 C60.213794,67.684559 59.8793229,68.499177 59.6460678,69.3452065 L56.0884902,69.3452065 L56.0884902,75.5174767 L59.6460678,75.5174767 C59.7516633,75.9338912 59.8945468,76.3398897 60.0729771,76.7305241 C60.2055111,77.0731648 60.3599949,77.406854 60.5354622,77.7295042 L58.0451578,80.1912767 L62.3854026,84.543976 L64.8757069,82.0822034 L65.8362528,82.5460156 C66.2512197,82.731966 66.6792886,82.88699 67.1169808,83.0098278 L67.1169808,86.5776141 L73.3783175,86.5776141 L73.3783175,83.0098278 C73.8160097,82.88699 74.2440786,82.731966 74.6590454,82.5460156 L75.6195914,82.0822034 L78.1098958,84.543976 L82.4501405,80.1912767 L79.9598361,77.7295042 C80.1353033,77.406854 80.2897872,77.0731648 80.4223212,76.7305241 C80.6007515,76.3398897 80.7436351,75.9338912 80.8492306,75.5174767 L84.4068082,75.5174767 L84.4068082,69.3808844 L80.8492306,69.3808844 L81.2761399,69.3808844 Z" id="形状" fill="url(#linearGradient-2)" fill-rule="nonzero"></path>
        <path d="M70.5485007,77.9932812 C68.2916119,78.0038083 66.251603,76.6439731 65.3830841,74.5501026 C64.5145653,72.456232 64.9893259,70.0424847 66.5852045,68.4383596 C68.1810831,66.8342344 70.5824216,66.3570206 72.665528,67.2300274 C74.7486343,68.1030343 76.1014787,70.1535847 76.0910661,72.4221358 C76.0912657,73.917916 75.4931253,75.3509711 74.4311889,76.3988092 C73.3692525,77.4466473 71.9327332,78.0212397 70.4449025,77.9932812 L70.5485007,77.9932812 Z" id="路径" fill="#FFFFFF" fill-rule="nonzero"></path>
    </g>
</svg>