<?xml version="1.0" encoding="UTF-8"?>
<svg width="80px" height="80px" viewBox="0 0 80 80" version="1.1" xmlns="http://www.w3.org/2000/svg" xmlns:xlink="http://www.w3.org/1999/xlink">
    <title>ic/营销工具/海报推广备份 2</title>
    <g id="ic/营销工具/海报推广备份-2" stroke="none" stroke-width="1" fill="none" fill-rule="evenodd">
        <path d="M61.925,13.30625 L60.773,13.30625 C61.4022,13.30625 62.0154,13.36825 62.6074,13.47865 C62.453,13.36185 62.233,13.30625 61.925,13.30625 Z" id="路径" fill="#5088F6" fill-rule="nonzero"></path>
        <path d="M57.7130965,20.9288458 L60.1313104,20.8110659 L60.1280268,20.24425 L57.2322,20.3697258 L57.2513045,22.550662 L57.7044398,22.5315896 L57.7130965,20.9288458 Z M57.2522,22.8993173 L57.270409,25.36065 L57.7220517,25.3422469 L57.7229473,23.4095854 L58.5414564,23.37211 L58.5674266,25.1110369 L59.0086215,25.0979874 L58.972502,23.3858287 L59.6913095,23.3553799 L59.711011,25.2321628 L60.1734,25.2174403 L60.1441462,22.7825412 L57.2522,22.8993173 Z" id="形状" fill="#5088F6" fill-rule="nonzero"></path>
        <path d="M62.9077664,9 C64.0332746,9 65.0522992,9.4718552 65.7909154,10.2292746 C66.5385805,10.9959731 67,12.0549637 67,13.2218679 L67,13.2218679 L67,66.7778727 C66.9996972,67.945213 66.5383808,69.0043606 65.7908094,69.7710757 C65.0524347,70.5283585 64.0337806,71 62.9085136,71 L62.9085136,71 L17.0907393,71 C15.9657623,71 14.9471389,70.528126 14.208787,69.7707555 C13.4613234,69.0040385 13,67.9450382 13,66.7781321 L13,66.7781321 L13,13.2218679 C13,12.0548791 13.4612064,10.9957941 14.2086908,10.2290558 C14.9469611,9.47176897 15.9655429,9 17.0907393,9 L17.0907393,9 Z" id="路径" stroke="#5088F6" stroke-width="2" fill-rule="nonzero"></path>
        <path d="M43.935,23.81945 C45.9194,23.81945 47.4966,25.37425 47.4966,27.32745 C47.4966,29.28065 45.9194,30.82745 43.935,30.82745 C41.9506,30.82745 40.3725733,29.27265 40.3725733,27.32745 C40.365,25.41305 41.9822,23.81945 43.935,23.81945 Z" id="路径" fill="#5088F6" fill-rule="nonzero"></path>
        <path d="M57.8254,62.25545 L17.1378,62.25545 C16.1066,62.25545 15.3018,61.8141074 15.3018,61.2557823 C15.3018,60.6972358 16.1066,60.25545 17.1378,60.25545 L57.8638,60.25545 C58.8946,60.25545 59.6998001,60.6967926 59.6998001,61.2557823 C59.6998001,61.8141074 58.8562,62.25545 57.8254,62.25545 L57.8254,62.25545 Z" id="路径" fill="#5088F6" fill-rule="nonzero"></path>
        <path d="M15.3018,54.4439608 C15.3018,53.8852904 16.1066,53.44385 17.1378,53.44385 L40.3638,53.44385 C41.395,53.44385 42.2006,53.8848472 42.2006,54.4439608 C42.2006,55.0024096 41.3882,55.44385 40.3638,55.44385 L17.1378,55.44385 C16.1066,55.44385 15.3018,55.0024096 15.3018,54.4439608 L15.3018,54.4439608 Z" id="路径" fill="#5088F6" fill-rule="nonzero"></path>
        <path d="M57.9990991,46.6877258 C57.7158895,47.1751261 57.11813,47.50705 56.4538679,47.50705 L17.0548673,47.50705 C16.3986319,47.5007405 15.7955403,47.1645023 15.4717984,46.6244506 C15.1639424,46.0819492 15.2193719,45.4193355 15.6135942,44.9293968 L27.8340302,29.3506671 C28.125002,28.9746847 28.5748116,28.7374257 29.0658581,28.7009206 C29.5508187,28.6431147 30.038405,28.7874603 30.4020264,29.0964813 L43.0470857,39.3152545 L47.5119363,34.7109852 C47.8777009,34.3508586 48.3929054,34.1530783 48.9153716,34.1885124 C49.443753,34.2259137 49.9300151,34.4752665 50.2515399,34.873693 L57.8955231,44.9937568 C58.2834553,45.4800723 58.3205286,46.1298188 57.9990991,46.6877258 L57.9990991,46.6877258 Z" id="路径" fill="#5088F6" fill-rule="nonzero"></path>
        <path d="M62.6842,25.5389897 C62.6842,25.8036876 62.6391926,26.0599983 62.5488817,26.3022187 C62.4617756,26.5346047 62.3356715,26.7456161 62.1775708,26.9235375 C62.0205761,27.1026108 61.8340512,27.2449822 61.6285991,27.3425586 C61.41602,27.4447663 61.1873763,27.497148 60.9564493,27.4965464 L60.8039571,27.4965464 L58.9699061,26.3035607 L56.9839551,27.59585 L54.9985963,26.3035607 L53.1645452,27.4965464 L53.0126453,27.4965464 C52.3175532,27.4980604 51.689707,27.0262931 51.4205089,26.3002058 C51.3302999,26.058881 51.2840709,25.799388 51.284594,25.5373122 L51.284594,13.9533406 C51.2836103,13.4336122 51.4660175,12.9349975 51.7912277,12.5684573 C51.9484083,12.389639 52.1348859,12.2473037 52.3401993,12.1494362 C52.5524251,12.047076 52.7808068,11.9946851 53.0114609,11.9954402 L60.9564493,11.9954402 C61.4150655,11.9947309 61.8549576,12.2014824 62.1784591,12.5697992 C62.5031789,12.9366029 62.6851397,13.4351625 62.6839039,13.9546825 L62.6839039,25.5389897 L62.6842,25.5389897 L62.6842,25.5389897 Z" id="路径" stroke="#5088F6" fill-rule="nonzero"></path>
        <path d="M58.019259,15.7476307 C58.2446708,15.7572036 58.4619212,15.6512409 58.6108703,15.4590756 C58.7073691,15.3007125 58.7754083,15.1223276 58.8110987,14.9341179 L58.8939727,14.4849875 C58.9223813,14.2912542 58.9685032,14.101405 59.0315919,13.9185136 C59.0792474,13.8122269 59.1769828,13.7470167 59.2820286,13.7514193 C59.3885399,13.7504913 59.4904551,13.8005733 59.5627113,13.8893493 C59.6601034,14.0265931 59.7054723,14.2008928 59.6915592,14.3755356 C59.6998744,14.601316 59.6166333,14.8189944 59.4656217,14.9663702 C59.3915191,15.0418543 59.3032008,15.0967519 59.2073211,15.128661 L59.1655816,15.1087607 L59.1719333,15.657736 L59.2227465,15.6817537 C59.5085539,15.6827329 59.7778562,15.529985 59.94865,15.2700222 C60.098944,15.0027623 60.1739522,14.689931 60.1636989,14.3731338 C60.1676042,14.0367959 60.0497515,13.713356 59.8376473,13.478304 C59.6669093,13.2698704 59.4269858,13.1521422 59.1761677,13.1537224 C58.9453053,13.1521153 58.7302985,13.2867363 58.6084507,13.5091839 C58.5155347,13.7025111 58.4520346,13.9122345 58.4206231,14.129526 L58.3359344,14.5560112 C58.2988693,14.7257851 58.2372386,14.8874098 58.1535511,15.0343059 C58.088177,15.1332249 57.9823245,15.1867086 57.8737758,15.1756671 C57.6994534,15.1863342 57.5435171,15.0535555 57.5038675,14.8606925 C57.4636166,14.7295254 57.4430661,14.5916225 57.4430731,14.4527352 C57.4220336,14.1887987 57.5208496,13.9308601 57.7053057,13.7682316 C57.811293,13.6923641 57.9325494,13.6483236 58.0576714,13.6402518 L58.1069723,13.6649557 L58.1384281,13.1465171 L58.0888247,13.1218132 C57.7970018,13.1152411 57.5174697,13.2549612 57.3248113,13.5036942 C57.2615972,13.5880991 57.2092716,13.6821111 57.1690445,13.7833285 C57.0919261,14.0002922 57.0564561,14.2334096 57.0649983,14.4671458 C57.0615035,14.7908113 57.1372012,15.1092358 57.2836767,15.3870225 C57.4484256,15.6561876 57.7335557,15.7959683 58.019259,15.7476307 L58.019259,15.7476307 Z M60.0932258,17.1787407 L57.1566436,16.0032473 L57.161483,16.6071202 L58.0204688,16.9289569 L58.0594861,18.1387612 L57.2183454,18.5165249 L57.22137,19.15265 L60.1035094,17.7740358 L60.0932258,17.1787407 L60.0932258,17.1787407 Z M58.4439125,17.9270626 L58.4499617,17.1166379 L59.452011,17.4978326 L58.4439125,17.9270626 L58.4439125,17.9270626 Z" id="形状" fill="#5088F6" fill-rule="nonzero"></path>
    </g>
</svg>