<?xml version="1.0" encoding="UTF-8"?>
<svg width="100px" height="100px" viewBox="0 0 100 100" version="1.1" xmlns="http://www.w3.org/2000/svg" xmlns:xlink="http://www.w3.org/1999/xlink">
    <title>ic/功能支持/旅游定制备份 2</title>
    <defs>
        <linearGradient x1="50.5549255%" y1="111.888106%" x2="50.4590302%" y2="-5.47328987%" id="linearGradient-1">
            <stop stop-color="#40B6F9" offset="0%"></stop>
            <stop stop-color="#5578F5" offset="100%"></stop>
        </linearGradient>
        <linearGradient x1="50.3221336%" y1="111.888106%" x2="50.2664665%" y2="-5.47328987%" id="linearGradient-2">
            <stop stop-color="#40B6F9" offset="0%"></stop>
            <stop stop-color="#5578F5" offset="100%"></stop>
        </linearGradient>
    </defs>
    <g id="ic/功能支持/旅游定制备份-2" stroke="none" stroke-width="1" fill="none" fill-rule="evenodd">
        <path d="M3.54185981,62.4780511 C-2.8442008,50.7076237 -0.545108768,22.7333223 11.1392853,19.8709074 C22.8236793,17.0084925 25.8932934,3.7891714 42.5209305,3.7891714 C59.1485677,3.7891714 64.5746834,19.4498036 80.9868972,19.8709074 C97.3991109,20.2920111 100.458635,24.0430807 100,39.9637032 C99.5413654,55.8843257 91.6030534,66.6999738 80.9868972,73.8675181 C70.3707409,81.0350624 70.9475968,101.042 48.842317,93.9630949 C26.7370371,86.8841898 9.92792043,74.2484785 3.54185981,62.4780511 Z" id="路径-9" fill="#D3E8FF"></path>
        <path d="M10.8768869,58.971993 C5.64107646,50.4116822 7.52605857,30.0667357 17.1058724,27.9849794 C26.6856862,25.9032231 29.2024048,16.2891714 42.8350902,16.2891714 C56.4677756,16.2891714 60.9165454,27.6787221 74.3726092,27.9849794 C87.8286731,28.2912367 90.3371187,31.0192872 89.9610929,42.5979218 C89.5850671,54.1765564 83.0765951,62.0424822 74.3726092,67.2552417 C65.6686234,72.4680012 66.1415766,87.0185013 48.0178755,81.8702067 C29.8941743,76.7219121 16.1126973,67.5323039 10.8768869,58.971993 Z" id="路径-9" fill="#ACD4FF"></path>
        <path d="M72.0400423,24.5 C72.904218,24.5 73.6969815,24.7721461 74.2668784,25.2470653 C74.6926115,25.6018468 75,26.0790363 75,26.6333428 L75,26.6333428 L75,80.3666752 C75,80.9209485 74.6925919,81.3981153 74.2668633,81.7528876 C73.6969673,82.2277989 72.9042118,82.4999559 72.0400423,82.4999559 L72.0400423,82.4999559 L50.9599794,82.4999559 C50.0957925,82.4999559 49.3030388,82.2278093 48.7331488,81.7529029 C48.307417,81.3981279 48.0000217,80.9209528 48.0000217,80.3666752 L48.0000217,80.3666752 L48.0000217,26.6333428 C48.0000217,26.079032 48.3073973,25.6018341 48.7331336,25.24705 C49.3030245,24.7721358 50.0957863,24.5 50.9599794,24.5 L50.9599794,24.5 Z" id="路径" stroke="url(#linearGradient-1)" stroke-width="4" fill="#FFFFFF" fill-rule="nonzero"></path>
        <path d="M62,52 C63.1045695,52 64,52.8954305 64,54 C64,55.1045695 63.1045695,56 62,56 L50,56 L50,52 L62,52 Z M62,42 C63.1045695,42 64,42.8954305 64,44 C64,45.1045695 63.1045695,46 62,46 L50,46 L50,42 L62,42 Z M62,33 C63.1045695,33 64,33.8954305 64,35 C64,36.1045695 63.1045695,37 62,37 L50,37 L50,33 L62,33 Z" id="形状结合" fill="#C8E7FF" opacity="0.575076149"></path>
        <rect id="矩形" fill="#5088F6" x="46" y="32" width="16" height="4" rx="2"></rect>
        <rect id="矩形" fill="#5088F6" x="46" y="41" width="16" height="4" rx="2"></rect>
        <rect id="矩形" fill="#5088F6" x="46" y="51" width="16" height="4" rx="2"></rect>
        <path d="M65.0000903,72.5000166 C62.7909859,72.5000166 61.0000217,70.7092568 61.0000217,68.5001285 C61.0000217,66.2908847 62.7909281,64.5000166 65.0000903,64.5000166 C67.2091947,64.5000166 69.0000433,66.2908269 69.0000433,68.5001285 C69.0000433,70.709199 67.2091369,72.5000166 65.0000903,72.5000166 Z" id="路径" fill="#70BCF8" fill-rule="nonzero"></path>
        <path d="M30.7598811,25.492776 L41,36.6360389 L41,73.5 C41,76.2614237 39.8807119,78.7614237 38.0710678,80.5710678 C36.2614237,82.3807119 33.7614237,83.5 31,83.5 C28.2385763,83.5 25.7385763,82.3807119 23.9289322,80.5710678 C22.1192881,78.7614237 21,76.2614237 21,73.5 L21,73.5 L21,36.6099904 L30.7598811,25.492776 Z" id="矩形" stroke="url(#linearGradient-2)" stroke-width="4" fill="#FFFFFF"></path>
        <rect id="矩形" fill="#4F8CF7" x="19" y="36" width="24" height="4"></rect>
        <rect id="矩形" fill="#45A8F9" x="19" y="71" width="24" height="4"></rect>
    </g>
</svg>