<?xml version="1.0" encoding="UTF-8"?>
<svg width="37px" height="31px" viewBox="0 0 37 31" version="1.1" xmlns="http://www.w3.org/2000/svg" xmlns:xlink="http://www.w3.org/1999/xlink">
    <title>logo</title>
    <g id="10-11" stroke="none" stroke-width="1" fill="none" fill-rule="evenodd">
        <g id="分销平台备份-" transform="translate(-360.000000, -5809.000000)" fill="#FFFFFF" fill-rule="nonzero">
            <g id="编组-21" transform="translate(0.000000, 5784.000000)">
                <g id="星河旅游logo-04" transform="translate(360.000000, 25.000000)">
                    <g id="logo" transform="translate(0.007482, 0.060448)">
                        <path d="M36.5949174,17.2589552 C36.5949174,17.6241294 36.5844427,17.9873134 36.5634933,18.3485075 C31.8655831,25.3395522 23.8703818,29.9395962 14.7977812,29.9395962 C9.54327982,29.9491937 4.40857505,28.3743506 0.0673374613,25.4216418 C0.0224458204,24.7987562 -1.27589717e-14,24.1701493 -1.27589717e-14,23.5358209 C-1.27589717e-14,23.0706468 0.0122205022,22.6084577 0.0366615067,22.1492537 C4.58283339,25.5917524 10.1358998,27.4512943 15.8437564,27.4425373 C24.2931115,27.4425373 31.8064757,23.4522388 36.5949174,17.2589552 Z" id="路径"></path>
                        <path d="M23.8920795,23.3283582 C21.249436,24.0544319 18.5204807,24.4206866 15.7794118,24.4172371 C10.4547755,24.425438 5.22235726,23.031177 0.61127451,20.3753731 C0.576358789,19.7783582 0.558651531,19.1781095 0.558152735,18.5746269 C0.558152735,18.0865672 0.569874441,17.6014925 0.593317853,17.119403 C5.75024778,20.8172248 11.9435923,22.8015983 18.29484,22.7910448 C20.2741499,22.7934758 22.2489874,22.6035234 24.1913571,22.2238806 C24.0980822,22.5945274 23.998323,22.9626866 23.8920795,23.3283582 Z" id="路径"></path>
                        <path d="M20.122678,8.69701493 C20.1209738,10.0745471 20.3602424,11.4418135 20.8297214,12.7373134 C20.9509288,13.0716418 21.0866013,13.3985075 21.2367389,13.7179104 C21.5414497,14.5573529 21.7495356,15.4286141 21.8569917,16.3149254 C21.8769436,16.478607 21.8936533,16.6427861 21.9071207,16.8074627 C21.9320605,17.1218905 21.9445304,17.4393035 21.9445304,17.7597015 C21.9445304,18.0783582 21.9071207,18.7067164 21.9071207,18.7067164 C21.89914,18.7435323 21.8901617,18.7800995 21.8801858,18.8164179 C21.5150671,20.2343284 19.7852425,20.8641791 18.4998452,20.8560493 C15.2609133,20.8365672 1.05196078,13.7574627 1.05196078,13.7574627 L0.740712074,10.088806 C0.740712074,10.088806 14.5329205,17.9626866 15.9739422,18.3373134 C16.3001548,18.4223881 17.9993034,19.1291045 18.8133385,18.2544776 C19.6273736,17.3798507 19.0318111,15.3619403 18.2731424,14.2246269 C18.1347265,14.0179104 17.9618937,13.7679104 17.7733488,13.4843284 C17.7486584,13.4507463 17.5488906,13.1589552 17.045356,12.3328358 L17.0288958,12.3044776 C16.8957172,12.080597 16.7640351,11.8402985 16.6390867,11.5977612 C16.6385732,11.5963126 16.6385732,11.5947322 16.6390867,11.5932836 C16.1710657,10.5234225 15.9293498,9.36876304 15.9290506,8.20149254 C15.9290506,7.95273632 15.9397747,7.70522388 15.9612229,7.45895522 C16.0195901,6.77255185 16.1620603,6.09586792 16.3854489,5.44402985 C16.6695693,4.80179292 17.0058816,4.18381209 17.3910217,3.59626866 C19.0647317,0.984328358 22.2729876,0.220149254 23.9272446,0 C21.4987986,2.24310886 20.1196692,5.39571741 20.122678,8.69701493 Z" id="路径"></path>
                        <polygon id="路径" points="26.3162281 6.11119403 28.9618421 6.49477612 27.0472136 8.35597015 27.4991228 10.9835821 25.1333333 9.74328358 22.7675439 10.9835821 23.219453 8.35597015 21.3048246 6.49477612 23.9504386 6.11119403 25.1333333 3.72014925"></polygon>
                        <polygon id="路径" points="29.848452 14.8350746 31.5363777 15.0798507 30.3153251 16.2671642 30.6033798 17.9440299 29.0935243 17.1522388 27.5836687 17.9440299 27.8717234 16.2671642 26.6499226 15.0798507 28.3385965 14.8350746 29.0935243 13.3089552"></polygon>
                    </g>
                </g>
            </g>
        </g>
    </g>
</svg>