<?xml version="1.0" encoding="UTF-8"?>
<svg width="100px" height="100px" viewBox="0 0 100 100" version="1.1" xmlns="http://www.w3.org/2000/svg" xmlns:xlink="http://www.w3.org/1999/xlink">
    <title>ic/功能支持/供应商入驻备份 2</title>
    <defs>
        <linearGradient x1="51.1884048%" y1="111.888106%" x2="50.9830396%" y2="-5.47328987%" id="linearGradient-1">
            <stop stop-color="#40B6F9" offset="0%"></stop>
            <stop stop-color="#5578F5" offset="100%"></stop>
        </linearGradient>
        <linearGradient x1="52.2197018%" y1="111.888106%" x2="51.8361209%" y2="-5.47328987%" id="linearGradient-2">
            <stop stop-color="#40B6F9" offset="0%"></stop>
            <stop stop-color="#5578F5" offset="100%"></stop>
        </linearGradient>
    </defs>
    <g id="ic/功能支持/供应商入驻备份-2" stroke="none" stroke-width="1" fill="none" fill-rule="evenodd">
        <path d="M3.44411828,60.7210961 C-2.81459749,48.9078671 -0.561351795,20.831841 10.890043,17.9590173 C22.3414378,15.0861936 25.3498405,1.81880227 41.6459048,1.81880227 C57.9419692,1.81880227 63.2598824,17.5363823 79.3448191,17.9590173 C95.4297559,18.3816523 98.4282694,22.1463621 97.9787805,38.1248778 C97.5292916,54.1033935 89.749278,64.9583712 79.3448191,72.1519793 C68.9403603,79.3455874 69.5057131,99.4252776 47.8412361,92.320631 C26.1767591,85.2159844 9.70283405,72.5343251 3.44411828,60.7210961 Z" id="路径-9" fill="#D3E8FF"></path>
        <path d="M8.75564819,57.2155555 C3.43226133,48.5120611 5.34877248,27.8268162 15.0888225,25.7102395 C24.8288725,23.5936628 27.3876868,13.8188023 41.2483985,13.8188023 C55.1091102,13.8188023 59.632292,25.3988596 73.3134279,25.7102395 C86.9945638,26.0216194 89.5449668,28.7953005 89.1626514,40.5676044 C88.780336,52.3399083 82.1630005,60.337403 73.3134279,65.6373535 C64.4638553,70.9373039 64.9447194,85.731182 46.5178733,80.4967748 C28.0910272,75.2623675 14.0790351,65.9190499 8.75564819,57.2155555 Z" id="路径-9" fill="#ACD4FF"></path>
        <path d="M19.2706875,14.7215625 C19.2706875,14.7590625 19.2706875,14.7965625 19.2786875,14.833125 L19.2786875,14.61 C19.2786875,14.6470313 19.2706875,14.6840625 19.2706875,14.7215625 Z M23.0265625,14.7728281 L23.0265625,14.6798281 L23.0265625,14.7728281 Z" id="形状" fill="#999999" fill-rule="nonzero"></path>
        <path d="M38.1309375,28.49125 L38.0309375,28.39125 C38.0635089,28.425625 38.0966518,28.459375 38.1309375,28.49125 Z M40.510625,25.57875 C40.5703125,25.6321875 40.629375,25.6860938 40.6878125,25.7404688 C40.632276,25.6828217 40.5730915,25.6288041 40.510625,25.57875 L40.510625,25.57875 Z" id="形状" fill="#8C6239" fill-rule="nonzero"></path>
        <path d="M50.6666667,53.5203165 C55.1648587,53.5203165 59.4368529,54.4670885 63.2855113,56.1679109 C56.4559048,59.160882 51.6888889,65.9497471 51.6888889,73.8455143 C51.6888889,77.3623759 52.6346218,80.6596381 54.2870429,83.4996506 L20,83.4999832 C20,66.9426705 33.7299343,53.5203165 50.6666667,53.5203165 Z M49.6444444,21 C58.6774815,21 66,28.2798083 66,37.2601582 C66,46.2405081 58.6774815,53.5203165 49.6444444,53.5203165 C40.6114074,53.5203165 33.2888889,46.2405081 33.2888889,37.2601582 C33.2888889,28.2798083 40.6114074,21 49.6444444,21 Z" id="形状结合" fill="#FFFFFF" fill-rule="nonzero"></path>
        <path d="M49.3960965,82.5003559 L23,82.5 C23,66.2075999 36.4314575,53 53,53 C55.9887812,53 58.8754811,53.4297774 61.599673,54.2299124 C62.4166318,54.4698652 63.2189756,54.7431258 64.0050746,55.0480916 M52,21 C60.8366667,21 68,28.1633333 68,37 C68,45.8366667 60.8366667,53 52,53 C43.1633333,53 36,45.8366667 36,37 C36,28.1633333 43.1633333,21 52,21 Z" id="形状" stroke="url(#linearGradient-1)" stroke-width="4" stroke-linejoin="round" fill-rule="nonzero"></path>
        <path d="M45,54 C50.0193412,54 54.7507761,55.2121287 58.9080932,57.3549447 C53.5370392,60.9417224 50,67.0578013 50,74 C50,77.438457 50.8677068,80.6742503 52.3960965,83.5003559 L15,83.5 C15,67.2075999 28.4314575,54 45,54 Z M44,22 C52.8366667,22 60,29.1633333 60,38 C60,46.8366667 52.8366667,54 44,54 C35.1633333,54 28,46.8366667 28,38 C28,29.1633333 35.1633333,22 44,22 Z" id="形状结合" fill="#FFFFFF" fill-rule="nonzero"></path>
        <path d="M50.578926,81.5003559 L19,81.5000232 C19,66.2672852 30.3421197,53.9187112 44.3333333,53.9187112 C48.5718881,53.9187112 52.567322,55.0520027 56.0779454,57.0554494 M43.4888889,24 C50.950963,24 57,30.6974282 57,38.9593556 C57,47.2212831 50.950963,53.9187112 43.4888889,53.9187112 C36.0268148,53.9187112 29.9777778,47.2212831 29.9777778,38.9593556 C29.9777778,30.6974282 36.0268148,24 43.4888889,24 Z" id="形状" stroke="#DFF1FF" stroke-width="6" opacity="0.809754871" stroke-linejoin="round" fill-rule="nonzero"></path>
        <path d="M52.3960965,83.5003559 L15,83.5 C15,67.2075999 28.4314575,54 45,54 C50.0193412,54 54.7507761,55.2121287 58.9080932,57.3549447 M44,22 C52.8366667,22 60,29.1633333 60,38 C60,46.8366667 52.8366667,54 44,54 C35.1633333,54 28,46.8366667 28,38 C28,29.1633333 35.1633333,22 44,22 Z" id="形状" stroke="url(#linearGradient-1)" stroke-width="4" stroke-linejoin="round" fill-rule="nonzero"></path>
        <circle id="椭圆形" fill="url(#linearGradient-2)" cx="71" cy="74" r="17"></circle>
        <path d="M71,63 C72.1045695,63 73,63.8954305 73,65 L73,72 L80,72 C81.1045695,72 82,72.8954305 82,74 C82,75.1045695 81.1045695,76 80,76 L73,76 L73,83 C73,84.1045695 72.1045695,85 71,85 C69.8954305,85 69,84.1045695 69,83 L69,76 L62,76 C60.8954305,76 60,75.1045695 60,74 C60,72.8954305 60.8954305,72 62,72 L69,72 L69,65 C69,63.8954305 69.8954305,63 71,63 Z" id="形状结合" fill="#FFFFFF"></path>
    </g>
</svg>