<?xml version="1.0" encoding="UTF-8"?>
<svg width="80px" height="80px" viewBox="0 0 80 80" version="1.1" xmlns="http://www.w3.org/2000/svg" xmlns:xlink="http://www.w3.org/1999/xlink">
    <title>ic/营销工具/拼团备份 2</title>
    <g id="ic/营销工具/拼团备份-2" stroke="none" stroke-width="1" fill="none" fill-rule="evenodd">
        <path d="M57.1630137,30.3660263 L57.1394105,30.3687489 C57.0494451,29.7027376 56.4973374,29.1800021 55.8032691,29.1800021 L46.193039,29.1800021 L46.193039,26.4485731 C46.193039,20.4143135 41.2757236,15.5221764 35.2104076,15.5221764 C29.1454336,15.5221764 24.2281182,20.4143135 24.2281182,26.4485731 L24.2281182,29.1800021 L14.6182302,29.1800021 C13.9238198,29.1800021 13.3727384,29.7027376 13.2817467,30.3687489 L13.2574594,30.3660263 L10.5119726,65.8766456 L10.5362599,65.8793682 C10.5266818,65.9392649 10.5,65.9943972 10.5,66.0566762 C10.5,66.8111714 11.114023,67.4227311 11.8727434,67.4227311 L58.5487559,67.4227311 C59.3078183,67.4227311 59.9218414,66.8111714 59.9218414,66.0566762 C59.9218414,65.9940569 59.8948175,65.9389246 59.8855815,65.8793682 L59.9088426,65.8766456 L57.1630137,30.3660263 Z M26.973605,26.4489134 C26.973605,21.9233038 30.6618481,18.2539457 35.2104076,18.2539457 C39.7606774,18.2539457 43.4475522,21.9233038 43.4475522,26.4489134 L43.4475522,29.1803425 L26.973605,29.1803425 L26.973605,26.4489134 L26.973605,26.4489134 Z M15.0970569,31.0408256 L23.7792136,31.0408256 L23.7792136,37.2556975 C22.9279101,37.7592733 22.3504051,38.6856936 22.3504051,39.7583717 C22.3504051,41.3635876 23.6296747,42.663617 25.2080221,42.663617 C26.7863695,42.663617 28.0656391,41.3632256 28.0656391,39.7583717 C28.0656391,38.6856936 27.4877781,37.7592733 26.6368306,37.2556975 L26.6368306,31.0408256 L43.7836006,31.0408256 L43.7836006,37.2556975 C42.932297,37.7592733 42.354436,38.6856936 42.354436,39.7583717 C42.354436,41.3635876 43.6340617,42.663617 45.212053,42.663617 C46.7900444,42.663617 48.070026,41.3632256 48.070026,39.7583717 C48.070026,38.6856936 47.491809,37.7592733 46.6408615,37.2556975 L46.6408615,31.0408256 L55.3230183,31.0408256 L57.5208839,60.0987092 L12.9006154,60.0987092 L15.0970569,31.0408256 L15.0970569,31.0408256 Z M12.4771277,65.5619076 L12.6973521,61.959873 L57.7234631,61.959873 L57.9436875,65.5619076 L12.4771277,65.5619076 L12.4771277,65.5619076 Z" id="形状" fill="#5088F6" fill-rule="nonzero"></path>
        <path d="M47.9717068,9.90927316 C54.0156767,9.90927316 58.9335604,14.8301087 59.0857687,20.9587046 L59.0894,21.2514405 L59.0894,24.0868057 L68.8178143,24.0868057 C69.4735779,24.0868057 70.0041572,24.5594938 70.1460314,25.1846155 L70.1703874,25.3207866 L70.1942807,25.3179604 L72.9738772,62.1798277 L72.9503301,62.1826539 C72.9596797,62.2444766 72.9870358,62.3017067 72.9870358,62.3667088 C72.9870358,63.1038431 72.4364373,63.7095453 71.7310432,63.7782538 L71.5970645,63.7847447 L64.0853576,63.7842732 L63.9393576,61.8522732 L70.9845551,61.8531133 L70.7616224,58.1140143 L63.6573576,58.1132732 L63.5113576,56.1812732 L70.556552,56.1820296 L68.3316575,26.0184371 L59.5427297,26.0184371 L59.5423576,26.0422732 L56.6493576,26.0422732 L56.6503309,26.0184371 L50.2273576,26.0182732 L50.2273576,24.0862732 L56.3101498,24.087159 L56.3101498,21.2517938 C56.3101498,16.5539759 52.5779348,12.7449916 47.9717068,12.7449916 C46.8191492,12.7449916 45.7211582,12.9836464 44.7226309,13.415158 L44.3800137,13.2183201 C44.3803436,13.2185018 44.3806734,13.2186835 44.3810033,13.2188653 C43.6966765,12.6085827 42.9622451,12.055083 42.1847542,11.5659704 C43.8693681,10.5150374 45.8512464,9.90927316 47.9717068,9.90927316 Z" id="形状结合" fill="#5088F6" fill-rule="nonzero"></path>
    </g>
</svg>