<?xml version="1.0" encoding="UTF-8"?>
<svg width="30px" height="30px" viewBox="0 0 30 30" version="1.1" xmlns="http://www.w3.org/2000/svg" xmlns:xlink="http://www.w3.org/1999/xlink">
    <title>ic/社交/微信</title>
    <g id="ic/社交/微信" stroke="none" stroke-width="1" fill="none" fill-rule="evenodd">
        <g id="微信" transform="translate(3.000000, 3.000000)" fill-rule="nonzero">
            <rect id="矩形" fill="#000000" opacity="0" x="0" y="0" width="24" height="24"></rect>
            <path d="M24,14.52 C24,11.16 20.76,8.52 16.8,8.52 C12.84,8.52 9.6,11.16 9.6,14.52 C9.6,17.88 12.84,20.52 16.8,20.52 C17.52,20.52 18.24,20.4 18.96,20.28 L21.24,21.48 L20.64,19.68 C22.68,18.48 24,16.68 24,14.52 L24,14.52 Z M14.28,13.56 C13.56,13.56 13.08,13.08 13.08,12.36 C13.08,11.64 13.56,11.16 14.28,11.16 C15,11.16 15.48,11.64 15.48,12.36 C15.48,12.96 14.88,13.56 14.28,13.56 Z M19.2,13.56 C18.48,13.56 18,13.08 18,12.36 C18,11.64 18.48,11.16 19.2,11.16 C19.92,11.16 20.4,11.64 20.4,12.36 C20.4,12.96 19.8,13.56 19.2,13.56 Z" id="形状" fill="#4CBF00"></path>
            <path d="M8.4,14.28 C8.4,10.56 12,7.56 16.56,7.56 L16.92,7.56 C15.96,4.44 12.72,2.04 8.64,2.04 C3.84,2.04 0,5.28 0,9.24 C0,11.76 1.56,14.04 3.96,15.24 L3.24,17.4 L6,16.08 C6.84,16.32 7.68,16.44 8.64,16.44 L8.88,16.44 C8.52,15.72 8.4,15 8.4,14.28 L8.4,14.28 Z M11.64,4.56 C12.48,4.56 13.2,5.28 13.2,6.12 C13.2,6.96 12.48,7.68 11.64,7.68 C10.8,7.56 10.08,6.84 10.08,6 C10.08,5.16 10.8,4.56 11.64,4.56 L11.64,4.56 Z M5.76,7.56 C4.92,7.56 4.32,6.84 4.32,6 C4.32,5.16 5.04,4.44 5.88,4.44 C6.72,4.44 7.32,5.16 7.32,6 C7.32,6.84 6.6,7.56 5.76,7.56 Z" id="形状" fill="#4CBF00"></path>
        </g>
    </g>
</svg>